<svg version="1.1" id="Ebene_1" xmlns="http://www.w3.org/2000/svg" x="0" y="0" viewBox="0 0 2048 1339" style="enable-background:new 0 0 2048 1339" xml:space="preserve"><style>.st0{stroke:#fff;stroke-miterlimit:10}.st0,.st1{fill:#fff}</style><path class="st0" d="M67.86 1115.76c-21.15 62.8-36.9 145.95 37.43 179.07 66.69 29.72 154.85.76 222.79-7.51 229.95-28.01 462.1-26.77 693.27-20.01 219.78 6.42 439.53 17.81 659.47 14.6 53.54-.78 107.07-2.37 160.54-5.13 40.36-2.09 89.59 1.15 127.53-16.09 65.91-29.93 59.21-120.9 62.74-180.76 12.49-211.92-2.82-424.87-12.3-636.63l-7.8-174.31c-1.8-40.23 2.58-89.02-15.09-126.59-35.89-76.32-160.61-52.98-227.7-53.6-449.99-4.21-900.16 9.43-1349.06 41-91.49 6.44-195.52 3.7-279.62 46.24-78.96 39.95-93.32 106.95-91.61 190.43 5.3 259.33 11.68 518.65 17.51 777.97.37 16.32 34.77 9.98 34.47-3.38-4.36-193.53-8.71-387.05-13.07-580.58-1.05-46.45-2.09-92.89-3.14-139.34-1-44.42-7.68-93.59 1.68-137.42 21.26-99.53 128.5-115.84 214.29-123.15 391.21-33.34 785.08-46.94 1177.61-49.73 96.67-.69 193.35-.54 290.01.43 44.47.45 94.41-5.05 138.08 4.16 66.73 14.08 67.24 72 69.85 127.86 9.15 196.2 20.35 392.66 24.72 589.04 2.12 95.06 1.54 190.28-5.55 285.13-4.08 54.57-1.44 110.57-64.08 131.33-40.85 13.54-100.06 6.66-142.99 8.25-197.67 7.34-395.5.11-593.08-6.8-207.76-7.26-415.85-14.37-623.66-4.74-106.72 4.94-213.01 14.76-318.69 30.46-45.82 6.81-104.86 19.71-142.62-14.23-43.19-38.81-23.4-102.09-7.48-149.36 4.68-13.84-30.02-9.76-34.45 3.39z"/><path class="st0" d="M549.06 113.72c.63-16.13-6.76-80.57 4.06-91.66 4.84-4.96 69.98 2.74 78.75 2.34 28.1-1.27 56.77-7.51 84.8-6.51 25.65.92 54.04 3.7 65.55 30.56 6.5 15.17 6.68 31.73-6.49 43.61-13.84 12.49 19.84 9.68 26.84 3.36 23.58-21.27 24.27-54.97-.9-77.17C767.52-11.87 711.08 2.5 671.05 5.93c-36.03 3.08-71.29-1.28-107.1.26-11.01.47-21.12.38-30.86 6.46C503.83 30.9 516 93.16 514.83 122.9c-.3 7.73 33.77 2.58 34.23-9.18zM1099.62 163.24c-61.76-9.26-167.48 2.42-192.61 73-24.09 67.66 77.01 97.77 126.11 99.31 57.28 1.8 117.33-33.68 111.18-97.96-6.86-71.68-84.71-91.28-142.81-69.49-22.08 8.29-2.39 24.35 14.57 17.99 47.85-17.95 98.2 20.72 93.81 70.87-4.69 53.55-57.29 61.76-100.31 50.35-33.12-8.78-89.1-34.14-66.02-77.38 25.37-47.54 97.48-50.7 143.7-43.77 15.59 2.34 35.33-19.48 12.38-22.92zM1620.86 213.64c-25.02 34.48-73.03 126.18-20.63 156.49 25.22 14.58 78.63 7.01 107.13 7.06 56.85.09 113.38-4.02 169.78-10.94 6.99-.86 22.73-7.6 18.41-17.96-16.68-39.96-26.34-79.25-30.1-122.39-.43-4.87-7.24-8.27-11.39-8.61-84.92-6.97-168.14-1.54-251.45 16.41-21.64 4.66-14.67 29.82 6.75 25.21 58.28-12.56 117.15-19.39 176.81-18.4 49.78.82 43.55 7.23 52.54 48.3 5.2 23.77 13.26 46.25 22.61 68.66l18.41-17.96c-56.4 6.92-112.93 11.05-169.78 10.94-40.23-.07-90.16 15.27-95.35-39.15-2.77-29.07 19.13-64.11 35.24-86.31 12.93-17.83-19.06-25.02-28.98-11.35zM38.73 430.33c315.2-22.75 631.38-17.79 945.72 14.71 7.79.81 36.23-11.83 28.29-12.65-318.78-32.96-639.25-37.85-958.9-14.78-8.55.61-37.37 14.32-15.11 12.72zM1444.6 425.48c169.45-18.96 348.68-7.84 517.76 11.24 7.28-5.11 14.56-10.22 21.83-15.32-9.98-.91-19.96-1.82-29.95-2.72-8.34-.76-39.43 13.72-21.83 15.32 9.98.91 19.96 1.82 29.95 2.72 8.12.74 39.65-13.31 21.83-15.32-174.39-19.68-358.92-29.97-533.72-10.41-14.75 1.65-29.93 17.18-5.87 14.49zM102.29 1136.06c-4.68 5.99-9.37 11.98-14.05 17.96-4.47 5.72 3.93 6.26 8.16 5.9 283.48-24.63 567.87-33.04 852.3-25.13 7.55.21 38.93-13.81 22.11-14.28-140.14-3.9-280.34-4.16-420.49-.26-69.45 1.93-138.87 4.86-208.23 8.78a7303.128 7303.128 0 0 0-161.73 10.94c.15-.01-60.13 10.48-47.02-6.28 6.82-8.71-25.84-4.3-31.05 2.37zM1580.15 1142.99c141.95-8.81 283.67-20.39 425.16-34.72 17.31-1.75 27.94-22.82 4.28-20.43-141.5 14.33-283.21 25.91-425.16 34.72-17.52 1.09-27.93 21.9-4.28 20.43zM1334.14 505.68c-138.45-15.47-275.04 49.75-344.59 172.17-35.55 62.58-58.5 142.46-47.29 214.84 11.29 72.89 68.86 125.96 128.8 162.94 120.88 74.57 281.12 90.63 409.59 25.55 115.39-58.45 195.33-188.86 180.8-319.47-9.59-86.17-55.64-133.31-127.18-174.61-86.5-49.93-175.37-93.14-277.39-90.16-12.53.37-36.34 19.75-13.4 19.08 97-2.84 181.6 40.16 263.5 87.44 66.09 38.16 108.21 81.47 119.37 159.58 23.17 162.19-103.96 315.19-262.65 336.68-141.6 19.18-370.6-59.97-388.11-225.39-20.05-189.33 145.6-371.79 337.52-350.35 10.58 1.21 40.06-16.17 21.03-18.3z"/><path class="st0" d="M1020.74 441.71c-180.79 106.75-205.2 343.35-158.57 532.11 47.89 193.86 228.28 296.7 421.35 279.06 90.93-8.31 178.79-40.52 257.78-85.49 80.67-45.93 167.12-102.94 197.97-194.96 31.12-92.84 38.68-212.26 9.79-306.01-30.23-98.14-109.8-160.56-195.69-210.04-177.22-102.09-403.22-128.91-574.15.69-14.05 10.65 19.87 7.03 26.48 2.01 193.52-146.73 502.57-59.28 653.57 115.14 74.54 86.09 80.03 204.81 65.29 312.56-6.64 48.55-15.7 99.65-42.16 141.84-32.37 51.62-87.99 88.11-138.91 119.64-114.01 70.58-249.2 112.39-382.83 80.24-105.6-25.41-195.63-92.26-240.31-192.53-41.9-94.01-46.27-204.11-38.27-305.32 9.53-120.67 58.44-223.92 165.13-286.92 14.72-8.69-19.54-6.11-26.47-2.02zM558.86 31.15c1.04 28.3-1.76 56.02-8.25 83.57-2.45 10.39 31.61 5.14 34.01-5.07 6.8-28.89 9.55-58.02 8.46-87.67-.31-8.61-34.65-2.45-34.22 9.17zM603.13 25.23c1.22 28.57-2.27 56.34-10.18 83.79-2.98 10.35 31.03 5.59 34.06-4.92 8.31-28.85 11.63-58.07 10.35-88.04-.4-9.11-34.74-2.75-34.23 9.17zM652.38 28.25c1.15 24.65 2.3 49.29 3.46 73.94.54 11.56 34.87 4.51 34.23-9.17-1.15-24.65-2.3-49.29-3.46-73.94-.54-11.56-34.87-4.51-34.23 9.17zM710.4 19.44v94.49c0 6.38 34.23 1.28 34.23-9.17V10.27c0-6.38-34.23-1.28-34.23 9.17zM115.71 510.54c30.72-13.9 60.09-30.38 88.04-49.24 6.08-4.1 8.5-11.77 2.12-16.65-6.69-5.12-18.3-1.82-24.47 2.34-25.59 17.27-52.32 32.12-80.45 44.84-21.41 9.68-2.3 26.42 14.76 18.71zM193.29 503.77c20.91-7.08 40.03-17.83 56.74-32.26 6.01-5.19-5.29-6.09-8.17-5.92-7.75.44-16.9 3.09-22.88 8.26-11.22 9.69-23.6 16.94-37.64 21.69-3.2 1.08-14.01 5.28-10.13 10 3.65 4.47 18.28-.49 22.08-1.77zM116.91 591.03c18.7-8.86 37.4-17.72 56.11-26.57 4.22-2 14.01-6.88 9.39-12.78-4.15-5.3-17.86-2-22.51.2-18.7 8.86-37.4 17.72-56.11 26.57-4.22 2-14.01 6.88-9.39 12.78 4.16 5.3 17.87 2 22.51-.2z"/><path class="st0" d="M173.61 573.23c18.31-11.01 37.43-19.67 57.76-26.22 3.71-1.19 13.07-4.49 10.31-9.35-2.44-4.3-19.28 1.28-21.99 2.15-25.29 8.15-49.41 19.14-72.17 32.84-6.01 3.61-3.85 6.22 1.89 7.06 7.4 1.1 17.93-2.7 24.2-6.48z"/><path class="st0" d="M265.88 535.26c17.81-10.68 35.61-21.36 53.42-32.04 6.26-3.76 8.38-12.14 2.09-16.75-7.12-5.22-17.86-1.65-24.48 2.31-17.81 10.68-35.61 21.36-53.42 32.04-6.26 3.76-8.38 12.14-2.09 16.75 7.12 5.22 17.87 1.65 24.48-2.31z"/><path class="st1" d="M343.16 453.73c7.85 0 18.24-2.32 22.48-9.76 3.93-6.9-3.37-11.66-9.71-11.66-7.85 0-18.24 2.32-22.48 9.76-3.92 6.89 3.37 11.66 9.71 11.66z"/><path class="st0" d="M386.01 508.58c19.39-13.17 39.82-24.55 61.39-33.75 4.2-1.79 13.32-5.39 9.84-11.09-3.02-4.95-18.86-.29-22.25 1.16-26.54 11.33-51.74 24.88-75.61 41.1-6.08 4.13-3.45 7.75 2.43 9.06 7.45 1.67 18.11-2.34 24.2-6.48zM288.35 592.33c21.7-10.73 43.41-21.46 65.11-32.18 4.14-2.05 10.3-4.99 4.4-8.13-5.34-2.84-19.08 2.21-23.87 4.57-21.7 10.73-43.41 21.46-65.11 32.18-4.14 2.05-10.3 4.99-4.4 8.13 5.35 2.84 19.08-2.21 23.87-4.57zM198.06 643.52c17.47-10.3 35.69-18.61 54.83-25.33 4.95-1.74 13.62-7.9 9.11-13.79-4.62-6.03-17.27-2.27-22.66-.37-21.8 7.66-42.64 17.52-62.54 29.26-5.23 3.09-9.55 9.39-2.98 13.43 6.64 4.06 18.26.33 24.24-3.2zM111.81 656.61c13.78-7.87 27.56-15.75 41.34-23.62 4.43-2.53 10.35-8.12 3.49-11.54-6.6-3.3-18.25.33-24.11 3.68-13.78 7.87-27.56 15.75-41.34 23.62-4.43 2.53-10.35 8.12-3.49 11.54 6.61 3.29 18.25-.33 24.11-3.68zM131.91 725.41a397.875 397.875 0 0 1 74.3-26.33c2.99-.74 17.11-4.6 15.78-9.56-1.32-4.93-16.13-.96-18.45-.39a490.71 490.71 0 0 0-91.21 32.32c-4.31 2.03-10.19 5.26-4.32 8.45 5.51 2.99 18.93-2.16 23.9-4.49zM159.19 771.69c22.64-10.83 45.28-21.65 67.92-32.48 6.16-2.95 13.03-10.27 8.2-17.22-4.78-6.87-16.86-5.34-23.18-2.32-22.64 10.83-45.28 21.65-67.92 32.48-6.16 2.95-13.03 10.27-8.2 17.22 4.78 6.88 16.86 5.35 23.18 2.32zM159.03 836.74c10.88-8.76 22.45-16 35.17-21.76 3.96-1.79 10.76-7.08 3.95-9.83-6.93-2.8-17.75 1.31-23.99 4.13-14.87 6.73-28.88 15.24-41.6 25.49-5.01 4.03-4.51 7.7 2.27 8.46 7.26.81 18.39-1.81 24.2-6.49zM185.7 866.54c12.67-7.04 25.82-11.43 40.18-13.37 5.47-.74 18.62-4.03 19.63-10.93 1.05-7.2-10.15-6.7-14.45-6.12-23.34 3.16-45.56 10.53-66.15 21.97-4.81 2.67-9.98 8.35-3.36 12.02 6.57 3.61 18.29-.31 24.15-3.57zM164.46 938.18c27.33-13.33 55.37-24.31 84.57-32.83 20.59-6.01 15.4-26.48-5.46-20.39-32.15 9.38-63.36 21.31-93.47 36-21.16 10.32-2.06 25.23 14.36 17.22zM202.49 962.77c7.89-2.92 15.77-5.84 23.66-8.76 3.66-1.36 14.42-6.86 9.59-12.03-4.73-5.06-17.32-1.25-22.4.63-7.89 2.92-15.77 5.84-23.66 8.76-3.66 1.36-14.42 6.86-9.59 12.03 4.74 5.06 17.33 1.25 22.4-.63zM112.16 1069.83c26.48-7.24 51.94-17.16 76.31-29.81 4.88-2.54 9.83-7.12 3.68-10.82-5.99-3.61-18.68 1.07-24.06 3.87-19.06 9.89-38.81 17.68-59.52 23.35-3.93 1.08-16.97 5.14-15.32 11.29 1.62 6.06 15.47 3.06 18.91 2.12zM200.03 1088.72c14.76-5.91 29.53-11.81 44.29-17.72 5.32-2.13 13.49-8.57 8.84-14.82-4.67-6.28-17.16-3.22-22.82-.95-14.76 5.91-29.53 11.81-44.29 17.72-5.32 2.13-13.49 8.57-8.84 14.82 4.67 6.28 17.16 3.22 22.82.95zM277.31 1097.47c15.75-8.85 31.51-17.7 47.26-26.54 5.28-2.97 9.53-9.6 2.96-13.53-6.86-4.09-18.04-.33-24.25 3.16-15.75 8.85-31.51 17.7-47.26 26.54-5.28 2.97-9.53 9.6-2.96 13.53 6.86 4.09 18.04.33 24.25-3.16zM318.1 988.16c15.75-5.91 31.5-11.81 47.25-17.72 5.28-1.98 13.49-8.48 8.9-14.61-4.71-6.28-17.13-2.96-22.79-.84-15.75 5.91-31.5 11.81-47.25 17.72-5.28 1.98-13.49 8.48-8.9 14.61 4.71 6.29 17.14 2.97 22.79.84z"/><path class="st0" d="M310.35 973.69c5.91-1.97 11.81-3.94 17.72-5.91 4.77-1.59 16.63-5.48 14.97-12.6-1.55-6.65-15.22-4.78-19.26-3.43-5.91 1.97-11.81 3.94-17.72 5.91-4.77 1.59-16.63 5.48-14.97 12.6 1.55 6.66 15.22 4.78 19.26 3.43zM401.3 1034.4c18.11-8.73 35.25-19.31 51.03-31.76 5.69-4.49 8.78-12.03 2-17.09-6.55-4.88-18.55-2.47-24.5 2.22-13.56 10.7-27.9 19.79-43.46 27.3-6.13 2.96-13.02 10.13-8.23 17.09 4.71 6.84 16.94 5.25 23.16 2.24zM396.98 1077.81c12.8-3.94 25.59-7.87 38.39-11.81 6.65-2.05 16.22-7.93 13.97-16.32-2.16-8.06-13.72-9.16-20.26-7.15-12.8 3.94-25.59 7.87-38.39 11.81-6.65 2.05-16.22 7.93-13.97 16.32 2.16 8.06 13.72 9.16 20.26 7.15zM525.55 1064.29c12.41-8.52 25.93-15.63 40.13-20.7 6.9-2.46 16.03-8.02 13.84-16.81-2-7.99-13.77-10-20.39-7.64-20.18 7.2-38.82 16.52-56.51 28.66-6.42 4.41-8.03 13.31-1.66 18.37 7.02 5.58 18.02 2.63 24.59-1.88zM568.66 1078.06c19.69-8.86 39.37-17.72 59.06-26.58 4.14-1.86 14.01-6.73 9.46-12.51-4.14-5.25-17.87-1.71-22.47.36-19.69 8.86-39.37 17.72-59.06 26.58-4.14 1.86-14.01 6.73-9.46 12.51 4.14 5.25 17.87 1.7 22.47-.36zM705.29 1052.09c7.87-3.94 15.75-7.87 23.62-11.81 4.1-2.05 10.71-8.39 3.57-11.23-7.33-2.91-17.51.47-24.09 3.76-7.87 3.94-15.75 7.87-23.62 11.81-4.1 2.05-10.71 8.39-3.57 11.23 7.33 2.92 17.51-.46 24.09-3.76zM727.57 1074.35c20.71-6.76 41.43-13.51 62.14-20.27 6.35-2.07 16.33-7.51 14.1-15.82-2.1-7.84-13.9-8.68-20.12-6.65-20.71 6.76-41.43 13.51-62.14 20.27-6.35 2.07-16.33 7.51-14.1 15.82 2.09 7.84 13.9 8.68 20.12 6.65zM846.34 1075.45c7.89-2.92 15.77-5.84 23.66-8.76 4.01-1.48 14.28-7.25 9.42-12.64-4.81-5.33-17.22-1.67-22.49.28-7.89 2.92-15.77 5.84-23.66 8.76-4.01 1.48-14.28 7.25-9.42 12.64 4.81 5.34 17.22 1.67 22.49-.28z"/><path class="st1" d="M682.82 935.35c7.92 0 18.27-2.27 22.45-9.89 3.81-6.94-3.28-12.14-9.83-12.14-7.92 0-18.27 2.27-22.45 9.89-3.81 6.95 3.27 12.14 9.83 12.14z"/><path class="st0" d="M521.88 938.43c12.18-1.7 23.84-5.72 33.65-13.3 5.09-3.94 9.53-11.32 2.35-15.79-6.74-4.2-18.39-2.09-24.41 2.56-1 .78-2.01 1.55-3.06 2.25-1.77 1.19-.83.53-2.01 1.06-2.78 1.25 2.03-.49-.9.37-.49.14-4.26.8-1.86.47-6.97.97-17.89 4.6-19.12 12.86-1.19 8.02 9.55 10.33 15.36 9.52zM563.56 977.72l26.58-14.76c5.34-2.97 13.72-9.55 8.43-16.36-4.8-6.18-17.04-5.17-23.05-1.83l-26.58 14.76c-5.34 2.97-13.72 9.55-8.43 16.36 4.79 6.18 17.03 5.18 23.05 1.83zM419.12 914.27c15.75-7.87 31.5-15.75 47.25-23.62 5.18-2.59 9.68-9.1 3.16-12.75-7.01-3.93-17.84.18-24.19 3.36-15.75 7.87-31.5 15.75-47.25 23.62-5.18 2.59-9.68 9.1-3.16 12.75 7 3.92 17.83-.18 24.19-3.36zM409.94 856.96l26.58-14.76c3.75-2.08 11-8.09 3.67-10.85-7.06-2.66-17.8.38-24.06 3.86l-26.58 14.76c-3.75 2.08-11 8.09-3.67 10.85 7.05 2.66 17.8-.38 24.06-3.86zM357.07 813.95c8.83-5.94 17.67-11.88 26.5-17.83 4.41-2.96 10.36-9.49 3.07-13.11-6.81-3.37-18.21-.77-24.22 3.27-8.83 5.94-17.67 11.88-26.5 17.83-4.41 2.96-10.36 9.49-3.07 13.11 6.81 3.37 18.21.77 24.22-3.27zM312.92 739.85c10.83-5.91 21.65-11.81 32.48-17.72 6.13-3.34 13.14-10.86 7.98-18.03-4.88-6.78-16.74-6.36-23.31-2.78-10.83 5.91-21.65 11.81-32.48 17.72-6.13 3.34-13.14 10.86-7.98 18.03 4.88 6.78 16.74 6.37 23.31 2.78zM285.82 717.61c13.94-6.7 28.23-12.31 42.94-17.07 3.34-1.08 13.99-5.48 10.05-10.29-3.78-4.62-18.17.34-22.13 1.62-17.4 5.63-34.33 12.5-50.81 20.42-3.94 1.89-10.72 6.66-4.03 9.53 6.56 2.8 18.13-1.39 23.98-4.21zM286.27 798.48c14.79-7.38 28.89-16.09 41.99-26.17 5.58-4.3 8.94-12.45 1.96-17.25-6.89-4.74-18.24-2.65-24.51 2.18-10.84 8.35-22.19 15.58-34.43 21.68-5.92 2.95-13.31 10.37-8.19 17.23 4.97 6.67 16.71 5.55 23.18 2.33zM359.88 644.41c8.74-5.12 17.48-10.24 26.23-15.36 5.52-3.23 13.59-9.89 8.27-16.93-4.75-6.28-17.04-5.72-23.14-2.15-8.74 5.12-17.48 10.24-26.23 15.36-5.52 3.23-13.59 9.89-8.27 16.93 4.75 6.28 17.04 5.72 23.14 2.15zM379.6 590.57c19.2-8.29 37.24-18.37 54.29-30.48 5.89-4.18 3.47-9.1-2.77-10.32-7.98-1.56-17.76 1.91-24.2 6.48-12.59 8.94-26.02 16.55-40.2 22.68-4 1.73-14.05 6.56-9.55 12.18 4.15 5.17 17.9 1.42 22.43-.54zM454.25 523.34c15.92-7.52 31.83-15.04 47.75-22.57 4.61-2.18 10.18-7.64 3.66-10.92-6.73-3.38-18 .97-24.07 3.84-15.92 7.52-31.83 15.04-47.75 22.57-4.61 2.18-10.18 7.64-3.66 10.92 6.73 3.38 18-.97 24.07-3.84zM560.86 464.89c3.94-1.97 7.87-3.94 11.81-5.91 6.07-3.04 13.19-10.65 8.1-17.59-4.98-6.79-16.66-5.81-23.24-2.53-3.94 1.97-7.87 3.94-11.81 5.91-6.07 3.04-13.19 10.65-8.1 17.59 4.99 6.79 16.67 5.81 23.24 2.53zM589.18 501.77c19.68-8.88 39.35-17.76 59.03-26.65 3.91-1.76 14.07-6.39 9.59-12.01-4.03-5.05-18.01-1.34-22.39.64-19.68 8.88-39.35 17.76-59.03 26.65-3.91 1.76-14.07 6.39-9.59 12.01 4.03 5.06 18.01 1.34 22.39-.64zM596.04 555.78c8.82-4.02 17.64-8.04 26.46-12.07 6.11-2.79 13.16-10.62 8.15-17.38-5.09-6.88-16.55-5.44-23.21-2.41-8.82 4.02-17.64 8.04-26.46 12.07-6.11 2.79-13.16 10.62-8.15 17.38 5.09 6.88 16.55 5.45 23.21 2.41zM497.46 574.84l47.25-20.67c3.46-1.51 14.13-5.71 9.88-10.94-3.78-4.65-18.26-.49-22.23 1.25l-47.25 20.67c-3.46 1.51-14.13 5.71-9.88 10.94 3.78 4.65 18.26.48 22.23-1.25z"/><path class="st0" d="M385.69 641.77c14.84-5.7 29.69-11.4 44.53-17.1 5.13-1.97 13.58-8.25 8.97-14.35-4.65-6.15-17.21-2.82-22.75-.69-14.84 5.7-29.69 11.4-44.53 17.1-5.13 1.97-13.58 8.25-8.97 14.35 4.66 6.15 17.22 2.82 22.75.69zM424.13 668.23c16.73-6.89 33.46-13.79 50.19-20.68 4.59-1.89 13.83-7.41 9.24-13.33-4.4-5.67-17.55-2.19-22.59-.11-16.73 6.89-33.46 13.79-50.19 20.68-4.59 1.89-13.83 7.41-9.24 13.33 4.39 5.67 17.54 2.18 22.59.11zM402.86 728.01c19.69-7.87 39.37-15.75 59.06-23.62 3.31-1.32 14.09-5.47 10.01-10.46-3.7-4.53-18.31-.02-22.16 1.52-19.69 7.87-39.37 15.75-59.06 23.62-3.31 1.32-14.09 5.47-10.01 10.46 3.71 4.53 18.32.02 22.16-1.52zM413.19 774.82l56.1-20.67c6.61-2.43 12.65-10.8 8.14-17.44-5.02-7.38-16.53-4.9-23.22-2.44l-56.1 20.67c-6.61 2.43-12.65 10.8-8.14 17.44 5.03 7.38 16.53 4.9 23.22 2.44zM545.64 779.72c8.86-3.94 17.72-7.87 26.58-11.81 3.98-1.77 10.77-7.42 3.87-10.11-7.17-2.79-17.55 1.18-24.01 4.05-8.86 3.94-17.72 7.87-26.58 11.81-3.98 1.77-10.77 7.42-3.87 10.11 7.17 2.8 17.55-1.18 24.01-4.05zM592.96 699.69l41.34-14.76c5.88-2.1 13.13-9.45 8.59-15.77-4.89-6.8-16.84-3.68-22.96-1.49l-41.34 14.76c-5.88 2.1-13.13 9.45-8.59 15.77 4.89 6.8 16.84 3.68 22.96 1.49zM649.37 630.53c5.91-2.95 11.81-5.91 17.72-8.86 4.64-2.32 10.24-9.16 3.27-12.34-7.43-3.39-17.46.11-24.17 3.47-5.91 2.95-11.81 5.91-17.72 8.86-4.64 2.32-10.24 9.16-3.27 12.34 7.44 3.39 17.46-.11 24.17-3.47zM690.76 582.9c9.84-4.92 19.69-9.84 29.53-14.76 6.02-3.01 13.23-10.55 8.13-17.46-4.98-6.75-16.68-5.73-23.22-2.46-9.84 4.92-19.69 9.84-29.53 14.76-6.02 3.01-13.23 10.55-8.13 17.46 4.98 6.76 16.68 5.73 23.22 2.46zM808.2 518.34c13.8-6.85 27.6-13.7 41.4-20.54 4.78-2.37 13.83-7.86 9.01-14.19-4.38-5.76-17.56-3.16-22.72-.6-13.8 6.85-27.6 13.7-41.4 20.54-4.78 2.37-13.83 7.86-9.01 14.19 4.38 5.76 17.56 3.16 22.72.6z"/><path class="st1" d="M847.04 470.24c7.41 0 17.97-5.7 18.87-13.78.99-8.93-9.15-11.13-15.79-11.13-7.41 0-17.97 5.7-18.87 13.78-.99 8.93 9.15 11.13 15.79 11.13z"/><path class="st0" d="M720.05 616.53c10.83-2.95 21.65-5.91 32.48-8.86 3.36-.92 16.78-4.43 15.72-9.78-1-5.05-16.37-1.19-18.5-.61-10.83 2.95-21.65 5.91-32.48 8.86-3.36.92-16.78 4.43-15.72 9.78.99 5.05 16.36 1.19 18.5.61zM731.36 656.89l41.34-14.76c4.95-1.77 13.65-7.96 9.09-13.87-4.65-6.03-17.24-2.36-22.67-.42l-41.34 14.76c-4.95 1.77-13.65 7.96-9.09 13.87 4.65 6.04 17.23 2.36 22.67.42zM657.09 773.71c4.92-.98 9.84-1.97 14.76-2.95 6.05-1.21 17.96-3.75 19.57-11.16 1.56-7.14-10.52-7.32-14.56-6.51-4.92.98-9.84 1.97-14.76 2.95-6.05 1.21-17.96 3.75-19.57 11.16-1.56 7.15 10.52 7.32 14.56 6.51zM671.92 800.14c14.32-5.38 29-9.55 44.05-12.33 5.31-.98 18.67-3.79 19.7-10.68 1.04-6.91-10.27-6.42-14.33-5.67-21.29 3.93-41.98 9.59-62.25 17.2-4.08 1.53-13.95 6.57-9.58 12.07 4.19 5.28 17.79 1.15 22.41-.59zM618.25 857.27c12.95-4.49 26.17-7.5 39.79-9.04 6.55-.74 18.66-2.32 22.92-8.12 4.12-5.61-3.66-5.89-8.02-5.39a307.693 307.693 0 0 0-66.44 15.07c-2.98 1.04-14 4.99-10.26 9.53 3.48 4.22 18.45-.82 22.01-2.05zM656.5 896.42c27.03-7.06 54.52-11 82.48-11.24 7.47-.06 18.99-2.06 22.42-9.98 3.05-7.02-2.66-12.53-9.92-12.47-34.13.29-67.46 4.42-100.51 13.05-20.88 5.46-15.43 26.12 5.53 20.64zM742.71 912.09c2.95-.98 5.91-1.97 8.86-2.95 3.56-1.19 14.43-6.74 9.67-11.73-4.79-5.03-17.26-.9-22.35.8-2.95.98-5.91 1.97-8.86 2.95-3.56 1.19-14.43 6.74-9.67 11.73 4.79 5.02 17.26.9 22.35-.8zM801.88 974.7l20.67-8.85c4.07-1.74 14.3-7.35 9.34-12.96-4.7-5.31-17.34-2.13-22.54.1l-20.67 8.85c-4.07 1.74-14.3 7.35-9.34 12.96 4.7 5.32 17.34 2.13 22.54-.1zM826.57 790.09c1.97-.98 3.94-1.97 5.91-2.95 4.71-2.35 10.18-9.27 3.23-12.5-7.44-3.45-17.45.06-24.18 3.43-1.97.98-3.94 1.97-5.91 2.95-4.71 2.35-10.18 9.27-3.23 12.5 7.45 3.45 17.45-.07 24.18-3.43z"/><path class="st1" d="M788.34 734.58c7.32 0 17.93-2.78 22.77-8.67 5.07-6.17-4.45-7.5-8.59-7.5-7.32 0-17.93 2.78-22.77 8.67-5.07 6.17 4.45 7.5 8.59 7.5zM820.68 674.99c7.24 0 17.85-2.88 22.83-8.45 5.31-5.93-4.74-6.65-8.36-6.65-7.24 0-17.85 2.88-22.83 8.45-5.31 5.92 4.73 6.65 8.36 6.65z"/><path class="st0" d="M745.13 673.84c7.87-2.95 15.75-5.91 23.62-8.86 2.67-1 14.15-4.84 10.36-9.16-3.48-3.96-18.49.96-21.96 2.26-7.87 2.95-15.75 5.91-23.62 8.86-2.67 1-14.15 4.84-10.36 9.16 3.48 3.96 18.48-.96 21.96-2.26zM593.58 625.93c3.94-2.95 7.87-5.91 11.81-8.86 5.9-4.42 3.21-10.65-3.23-12.05-8.4-1.82-17.56 1.51-24.2 6.48-3.94 2.95-7.87 5.91-11.81 8.86-5.9 4.42-3.21 10.65 3.23 12.05 8.4 1.82 17.57-1.5 24.2-6.48z"/><path class="st1" d="M625.78 565.5c7.72 0 17.96-5.99 18.72-14.33.83-9.09-8.9-12.11-16.06-12.11-7.72 0-17.96 5.99-18.72 14.33-.82 9.08 8.91 12.11 16.06 12.11zM531.33 639.68c7.25 0 17.87-2.85 22.82-8.5 5.25-5.99-4.67-6.86-8.42-6.86-7.25 0-17.87 2.85-22.82 8.5-5.25 6 4.67 6.86 8.42 6.86zM564.73 855.72c7.94 0 18.28-2.25 22.44-9.93 3.77-6.96-3.25-12.3-9.88-12.3-7.94 0-18.28 2.25-22.44 9.93-3.76 6.96 3.26 12.3 9.88 12.3z"/><path class="st0" d="M1723.42 541.95c26.43-2.79 51.88-8.89 76.95-17.66 5.24-1.83 13.49-8.37 8.96-14.39-4.72-6.28-17.12-2.68-22.75-.71-19.04 6.66-38.71 10.67-58.75 12.78-6.14.65-18.42 4.46-19.35 11.99-.97 7.84 9.64 8.55 14.94 7.99zM1819.68 564.77c3.94-.98 7.87-1.97 11.81-2.95 5.56-1.39 16.55-6.7 14.56-14.13-2.02-7.55-14.35-6.29-19.67-4.96-3.94.98-7.87 1.97-11.81 2.95-5.56 1.39-16.55 6.7-14.56 14.13 2.02 7.55 14.35 6.29 19.67 4.96zM1888.7 570.96c5.91-.98 11.81-1.97 17.72-2.95 6.49-1.08 17.85-4.11 19.38-11.88 1.49-7.57-10.16-8.57-14.9-7.78-5.91.98-11.81 1.97-17.72 2.95-6.49 1.08-17.85 4.11-19.38 11.88-1.48 7.57 10.17 8.57 14.9 7.78zM1873.16 601.44c13.78-3.94 27.56-7.87 41.34-11.81 6.3-1.8 16.21-7.31 14.23-15.36-1.95-7.9-14.11-7.87-20-6.19-13.78 3.94-27.56 7.87-41.34 11.81-6.3 1.8-16.21 7.31-14.23 15.36 1.95 7.9 14.12 7.87 20 6.19zM1905.73 644.76c5.91-1.97 11.81-3.94 17.72-5.91 2.74-.91 14.39-5.38 10.2-9.73-4.06-4.23-17.95.57-22.05 1.93-5.91 1.97-11.81 3.94-17.72 5.91-2.74.91-14.39 5.38-10.2 9.73 4.06 4.23 17.95-.56 22.05-1.93zM1794.56 675.22c17.86-6.8 34.93-15.45 51.08-25.66 5.37-3.39 9.38-10.18 2.72-14.42-6.72-4.28-18.25-.91-24.31 2.92-13.79 8.71-28.17 15.78-43.41 21.59-5.3 2.02-13.48 8.52-8.87 14.69 4.69 6.3 17.12 3.04 22.79.88z"/><path class="st1" d="M1799.97 608.91c8.08 0 17.23-2.37 24.2-6.48 1.34-.79 4.69-2.55 4.16-4.53-.53-1.97-4.63-1.85-5.87-1.85-8.08 0-17.23 2.37-24.2 6.48-1.34.79-4.69 2.55-4.16 4.53.53 1.97 4.63 1.85 5.87 1.85zM1798.68 591.6c7.64 0 18.14-2.47 22.58-9.38 4.31-6.71-3.68-10.2-9.31-10.2-7.64 0-18.14 2.47-22.58 9.38-4.32 6.71 3.68 10.2 9.31 10.2z"/><path class="st0" d="M1814.37 685.1c21.65-3.94 43.31-7.87 64.96-11.81 6.86-1.25 16.06-8.5 13.96-16.34-2.32-8.65-13.52-8.4-20.26-7.17-21.65 3.94-43.31 7.87-64.96 11.81-6.86 1.25-16.06 8.5-13.96 16.34 2.31 8.65 13.51 8.4 20.26 7.17zM1887.64 699.86l32.48-5.91c4.39-.8 8.99-2.15 13.06-4.02 1.36-.62 6.59-2.93 7.1-4.97 1.38-5.5-11.4-3.08-13.53-2.7l-32.48 5.91c-4.39.8-8.99 2.15-13.06 4.02-1.36.62-6.59 2.93-7.1 4.97-1.38 5.5 11.4 3.08 13.53 2.7zM1982.79 582.13c3.94-.98 7.87-1.97 11.81-2.95 6.96-1.74 16.07-8.48 13.86-16.72-2.26-8.44-13.5-9.27-20.37-7.55-3.94.98-7.87 1.97-11.81 2.95-6.96 1.74-16.07 8.48-13.86 16.72 2.26 8.44 13.5 9.27 20.37 7.55zM1965.59 553.25c9.87-3.88 19.73-7.75 29.6-11.63 4.23-1.66 14.32-7.87 9.21-13.43-5.06-5.51-16.95-2.39-22.61-.17-9.87 3.88-19.73 7.75-29.6 11.63-4.23 1.66-14.32 7.87-9.21 13.43 5.07 5.51 16.96 2.39 22.61.17zM1764.25 569.34l29.53-5.91c5.83-1.17 17.97-3.63 19.7-10.7 1.68-6.89-10.84-6.41-14.34-5.71l-29.53 5.91c-5.83 1.17-17.97 3.63-19.7 10.7-1.68 6.88 10.84 6.41 14.34 5.71zM1740.47 598.25l50.2-5.88c5.03-.59 18.81-3.96 19.8-10.31 1.07-6.84-10.45-5.46-14.16-5.02l-50.2 5.88c-5.03.59-18.81 3.96-19.8 10.31-1.07 6.83 10.46 5.45 14.16 5.02zM1763.51 783.04c15.75-3.94 31.5-7.87 47.25-11.81 5.56-1.39 16.4-6.48 14.62-13.88-1.8-7.48-14.61-5.96-19.61-4.71-15.75 3.94-31.5 7.87-47.25 11.81-5.56 1.39-16.4 6.48-14.62 13.88 1.81 7.48 14.62 5.96 19.61 4.71z"/><path class="st0" d="M1840.64 772.54c16.73-3.94 33.47-7.87 50.2-11.81 6.29-1.48 16.19-7.4 14.27-15.19-1.98-8.05-14.1-7.4-19.96-6.02-16.73 3.94-33.47 7.87-50.2 11.81-6.29 1.48-16.19 7.4-14.27 15.19 1.98 8.04 14.11 7.39 19.96 6.02zM1929.19 753.48c8.86-2.96 17.71-5.92 26.57-8.88 2.81-.94 14.11-4.99 10.3-9.36-3.61-4.14-18.34.92-21.99 2.14-8.86 2.96-17.71 5.92-26.57 8.88-2.81.94-14.11 4.99-10.3 9.36 3.61 4.14 18.34-.92 21.99-2.14zM1946.25 768.5h11.81c7.58 0 18.11-2.52 22.61-9.27 4.43-6.65-3.79-9.77-9.2-9.77h-11.81c-7.58 0-18.11 2.52-22.61 9.27-4.43 6.64 3.79 9.77 9.2 9.77zM1924.99 854.27l14.76-5.91c6.13-2.45 13.13-10.56 8.23-17.08-5.24-6.98-16.42-4.94-23.16-2.24l-14.76 5.91c-6.13 2.45-13.13 10.56-8.23 17.08 5.23 6.98 16.41 4.94 23.16 2.24z"/><path class="st0" d="M1844.02 865.69c15.75-3.94 31.5-7.87 47.25-11.81 7.1-1.78 15.92-8.5 13.84-16.8-2.12-8.49-13.6-9.33-20.39-7.63-15.75 3.94-31.5 7.87-47.25 11.81-7.1 1.78-15.92 8.5-13.84 16.8 2.13 8.49 13.6 9.32 20.39 7.63zM1813.93 812.51l35.43-5.91c4.73-.79 18.67-3.53 20.07-9.31 1.42-5.86-11.28-3.67-13.69-3.26l-35.43 5.91c-4.73.79-18.67 3.53-20.07 9.31-1.41 5.86 11.29 3.66 13.69 3.26zM1864.87 826.68c5.91-1.97 11.81-3.94 17.72-5.91 3.72-1.24 14.37-6.91 9.59-12.02-4.83-5.16-17.21-1.09-22.39.64-5.91 1.97-11.81 3.94-17.72 5.91-3.72 1.24-14.37 6.91-9.59 12.02 4.82 5.15 17.2 1.08 22.39-.64zM1779.1 932.49c14.7-6.37 29.67-10.6 45.69-11.9 6.84-.55 18.65-2.25 22.78-8.66 3.95-6.14-3.4-7.88-8.58-7.46-25.04 2.03-49.33 7.62-72.42 17.63-3.66 1.59-14.1 6-9.76 11.39 3.9 4.84 18.12.8 22.29-1zM1789.02 944.4c14.57-4.42 29.09-6.82 44.3-7.49 6.4-.28 18.85-2.57 22.91-8.16 4.22-5.81-3.75-5.72-8.06-5.53-21.02.93-41.82 4.58-61.96 10.69-3.11.94-17.12 4.56-15.71 9.83 1.35 5.05 16.07 1.41 18.52.66zM1763.96 1009.18c15.78-3.8 31.57-7.59 47.35-11.39 6.28-1.51 16.19-7.37 14.27-15.18-1.97-8.02-14.11-7.42-19.95-6.01-15.78 3.8-31.57 7.59-47.35 11.39-6.28 1.51-16.19 7.37-14.27 15.18 1.97 8.02 14.11 7.41 19.95 6.01zM1673.33 1076.68c19.51-1.11 38.63-6.09 56.32-14.38 5.27-2.47 13.56-8.57 8.77-15.07-4.54-6.17-17.31-3.7-22.86-1.1-12.27 5.75-24.6 8.73-38.12 9.51-6.55.37-18.13 4.79-19.25 12.38-1.19 8.18 9.73 8.97 15.14 8.66zM1695.68 1099.26c30.39-9.26 60.78-18.52 91.17-27.77 20.3-6.18 15.69-24.94-4.99-18.64-30.39 9.26-60.78 18.52-91.17 27.77-20.3 6.19-15.7 24.94 4.99 18.64z"/><path class="st1" d="M1801.58 1078.63c7.6 0 18.12-2.5 22.6-9.3 4.39-6.67-3.76-9.91-9.23-9.91-7.6 0-18.12 2.5-22.6 9.3-4.4 6.68 3.75 9.91 9.23 9.91zM1914.03 1049.98c7.79 0 18.22-2.36 22.51-9.67 4.02-6.86-3.44-11.29-9.61-11.29-7.79 0-18.22 2.36-22.51 9.67-4.02 6.85 3.44 11.29 9.61 11.29zM1958.09 1037.3c7.6 0 18.12-2.5 22.6-9.31 4.39-6.67-3.75-9.92-9.24-9.92-7.6 0-18.12 2.5-22.6 9.31-4.39 6.67 3.75 9.92 9.24 9.92z"/><path class="st0" d="M1850.11 1033.42c21.65-8.86 43.31-17.72 64.96-26.58 4.02-1.64 14-6.51 9.58-12.07-4.12-5.18-17.88-1.25-22.4.6-21.65 8.86-43.31 17.72-64.96 26.58-4.02 1.64-14 6.51-9.58 12.07 4.12 5.19 17.88 1.25 22.4-.6zM1964.44 957.74c8.86-2.95 17.72-5.91 26.58-8.86 5.57-1.86 16.59-6.55 14.49-14.37-1.97-7.34-14.39-6.98-19.73-5.19-8.86 2.95-17.72 5.91-26.58 8.86-5.57 1.86-16.59 6.55-14.49 14.37 1.96 7.34 14.38 6.97 19.73 5.19zM2001.41 903.01c8.88-3.89 17.76-7.78 26.64-11.66 4.95-2.17 13.94-8.8 8.81-14.93-5.03-6.01-16.88-3.63-22.84-1.02-8.88 3.89-17.76 7.78-26.64 11.66-4.95 2.17-13.94 8.8-8.81 14.93 5.04 6.01 16.88 3.63 22.84 1.02zM1976.92 855.51c4.92-1.97 9.85-3.93 14.77-5.9 3.23-1.29 14.34-5.85 9.92-10.8-4.1-4.58-17.96-.37-22.21 1.33-4.92 1.97-9.85 3.93-14.77 5.9-3.23 1.29-14.34 5.85-9.92 10.8 4.1 4.58 17.97.36 22.21-1.33zM1890.84 911.33l56.1-14.76c6.25-1.65 16.21-7.29 14.27-15.2-1.95-7.94-14.14-7.56-19.96-6.03l-56.1 14.76c-6.25 1.65-16.21 7.29-14.27 15.2 1.95 7.94 14.14 7.56 19.96 6.03z"/><path class="st0" d="M1939.98 911.93c4.92-3.94 9.84-7.87 14.76-11.81 5.52-4.42 3.66-9.96-3-11.21-8-1.5-17.9 1.45-24.2 6.48-4.92 3.94-9.84 7.87-14.76 11.81-5.52 4.42-3.66 9.96 3 11.21 8.01 1.51 17.9-1.44 24.2-6.48zM1939.26 758.12c12.87-4.72 25.74-9.45 38.6-14.17 5.78-2.12 13.2-9.29 8.63-15.61-4.84-6.7-16.9-3.62-22.94-1.4-12.87 4.72-25.74 9.45-38.6 14.17-5.78 2.12-13.2 9.29-8.63 15.61 4.84 6.7 16.9 3.62 22.94 1.4z"/><path class="st1" d="M1964 626.89c7.61 0 18.13-2.5 22.6-9.32 4.38-6.68-3.74-9.97-9.25-9.97-7.61 0-18.13 2.5-22.6 9.32-4.38 6.67 3.74 9.97 9.25 9.97z"/><path class="st0" d="M1010.93 541.42c58.14-55.35 140.03-75.94 217.1-90.45 79.35-14.94 158.81-13.5 232.76 21.43 44.13 20.85 83.54 51.28 118.71 84.84 27.07 25.83 103.65 88.06 99.82 129.66 3.78-2.66 7.55-5.32 11.33-7.98-2.01.75-4.03 1.51-6.04 2.26-22.83 8.54-1.2 11.56 11.57 6.78 2.01-.75 4.03-1.51 6.04-2.26 3.44-1.29 10.91-3.44 11.33-7.98 2.51-27.3-33.24-57.58-50.45-77.52-28.33-32.82-58.9-64.04-93.11-90.78-55.89-43.68-120.58-73.63-191.7-79.94-126.6-11.24-303.66 25.02-398.21 115.02-6.51 6.22 24.98 2.51 30.85-3.08zM970.89 1053.43c56.22 76.9 107.86 94.54 199.94 107.9 86.62 12.57 175.79 19.77 262.02.41 140.21-31.48 253.99-132.24 303.31-266.89 3.65-9.98-30.19-5.88-34.09 4.78-47.43 129.51-158.43 230.9-297.29 251.01-74.29 10.76-149.35 2.95-223.12-8.21-82.19-12.43-130.22-35.39-178.85-101.91-6.18-8.46-39.29 2.83-31.92 12.91z"/><path class="st1" d="M1726.91 821.31c7.28 0 17.98-5.59 18.93-13.55 1.06-8.86-9.26-10.73-15.68-10.73-7.28 0-17.98 5.59-18.93 13.55-1.06 8.87 9.26 10.73 15.68 10.73zM1727.16 789.73c7.65 0 17.96-5.92 18.76-14.2.87-9.05-8.96-11.88-15.99-11.88-7.65 0-17.96 5.92-18.76 14.2-.87 9.06 8.95 11.88 15.99 11.88z"/><path class="st0" d="M1742.7 745.53c-.98-3.94-1.97-7.87-2.95-11.81-3.38-13.54-37.66-4.57-34.23 9.17.98 3.94 1.97 7.87 2.95 11.81 3.39 13.54 37.67 4.58 34.23-9.17z"/><path class="st1" d="M1716.06 718.79c7.69 0 18.17-2.43 22.56-9.47 4.22-6.76-3.6-10.56-9.41-10.56-7.69 0-18.17 2.43-22.56 9.47-4.22 6.77 3.6 10.56 9.41 10.56zM1686.16 684.91c7.41 0 18-2.68 22.71-8.89 4.83-6.37-4.19-8.34-8.82-8.34-7.41 0-18 2.68-22.71 8.89-4.83 6.38 4.19 8.34 8.82 8.34z"/><path class="st0" d="M934.3 979.46c-11.34-54.29-7-94.44 5.5-147.09 10.46-44.08 8.06-92.18 10.09-137.23.69-15.39-33.81-9.1-34.38 3.71-2.31 51.56-.62 104.51-15.08 154.36-13.55 46.71-10.32 87.72-.35 135.43 2.75 13.17 37.09 4.54 34.22-9.18z"/><path class="st1" d="M941.62 674.32c7.55 0 17.97-5.83 18.81-14.02.92-9-9.04-11.56-15.91-11.56-7.55 0-17.97 5.83-18.81 14.02-.91 9.01 9.04 11.56 15.91 11.56z"/><path class="st0" d="m1171.55 579.35-64.96 44.29c-5.08 3.46-9.64 9.59-2.86 13.87 6.4 4.04 18.58.81 24.27-3.07l64.96-44.29c5.08-3.46 9.64-9.59 2.86-13.87-6.39-4.04-18.57-.81-24.27 3.07z"/><path class="st0" d="M1322.54 535.78c-94.41 10.25-178.43 48.63-248.2 112.97-15.47 14.27 17.72 19.5 28.5 9.56 60.58-55.87 134.61-89.32 216.46-98.21 18.78-2.04 26.62-26.86 3.24-24.32z"/><path class="st0" d="M1261.82 534.69c-76.72 21.79-145.23 58.66-205.5 110.89 9.25 2.26 18.5 4.52 27.76 6.78 61.91-54.13 140.13-75.28 218.68-92.73 16.76-3.72 19.56-20.42-.39-19.64-78.88 3.07-145.05 41.91-209.83 83.62l24.69 9.18c42.18-48.05 101.53-64.21 161.64-78.27 11.4-2.67 22.77-19.8 3.95-19.79-94.42.02-181.83 37.78-243.43 109.98-13.33 15.63 19.62 16.32 27.76 6.78 51.9-60.84 122.2-95.91 202.74-95.93 1.32-6.6 2.64-13.2 3.95-19.79-68.35 15.99-136.57 35.79-184.37 90.25-13.58 15.47 16.7 14.32 24.69 9.18 57.02-36.71 114.34-71.95 183.96-74.66l-.39-19.64c-87.48 19.43-172.72 44.66-241.41 104.71-15.16 13.25 18.6 14.71 27.76 6.78 53.74-46.57 114.37-79.48 182.77-98.91 20.49-5.85 15.72-24.68-5.03-18.79zM1371.24 691.8c92.37-48.9 130.73 61.59 137.5 129.98 3.33 33.64-4.8 74.34-25.75 101.85-20.54 26.97-41.63 32.2-73.87 38.34 4.96 2.58 9.93 5.17 14.89 7.75 39.43-94.12 50.47-228.58-66.25-270.61-10.65-3.84-41.58 11.71-27.15 16.91 112.67 40.58 96.17 169.38 59.12 257.82-3.06 7.32 11.58 8.38 14.89 7.75 39.21-7.48 76.93-6.98 101.36-41.25 33.42-46.88 45.48-102.32 30.66-157.8-11.33-42.42-31.09-111.1-78.84-126.02-37.44-11.7-75.72 7.48-107.96 24.55-20.28 10.72 9.82 16.86 21.4 10.73z"/><path class="st0" d="M1321.91 559.31c-77.54 23.58-180.01 55.57-228.38 125.62-9.01 13.04 22.24 6.25 26.21 4.16 84.82-44.6 173.32-77.59 266.54-99.81 15.15-3.61 21.08-18.82.53-16.2-130.73 16.68-248.22 74.01-341.38 167.23 10.54-.07 21.08-.15 31.62-.22 65.11-65.32 142.34-112.01 230.76-138.47 9.28-2.78 24.22-17.86 4.83-16.53-116.13 7.97-208.74 90.16-299.95 154.75l29.36 2.04c39.58-48.79 84.86-90.11 136.81-125.29 15.37-10.41-17.22-10.29-23.95-6.42-45.46 26.08-85.54 57.3-122.18 94.78 10.95-.83 21.9-1.67 32.85-2.5l17.32-26.26c8.83-10.61-25.04-7.68-31.62.22-13.37 16.06-10.55 12.1-19.8 30.83-5.62 11.39 28.95 1.49 32.85-2.5 33.53-34.3 69.69-62.11 111.36-86.02l-23.95-6.42c-53.91 36.5-100.35 79.29-141.33 129.81-10.18 12.55 25.05 5.09 29.36 2.04 75.78-53.66 162.8-134.64 259.11-141.25l4.83-16.53c-99.13 29.67-185.22 80.64-258.29 153.95-9.25 9.28 24.46 6.95 31.62-.22 83.37-83.42 187.58-134.93 304.61-149.86.18-5.4.36-10.8.53-16.2-99.01 23.6-193.17 59.16-283.26 106.52 8.74 1.39 17.47 2.78 26.21 4.16 41.89-60.66 133.17-89.56 200.85-110.15 19.97-6.08 16.34-21.47-4.07-15.26z"/><path class="st0" d="M1062.08 645.49c-2.83 2.69-5.66 5.39-8.49 8.08 10.16 2.07 20.32 4.15 30.48 6.22 1.64-4.19 3.29-8.38 4.93-12.57 6.48-16.53-19.47-14.57-27.48-8.88-25.07 17.8-45.51 40.61-60.4 67.51-8.76 15.82 23.67 15.87 30.48 6.22 10.75-15.25 21.51-30.49 32.26-45.74 12.37-17.54-19.83-21.34-28.4-9.18-10.76 15.25-21.51 30.49-32.26 45.74 10.16 2.07 20.32 4.15 30.48 6.22 12.46-22.5 29.28-41.38 50.25-56.27l-27.48-8.88c-1.64 4.19-3.29 8.38-4.93 12.57-2.7 6.9 1.47 11.6 8.24 13.11 8.02 1.79 16.43-1.36 22.24-6.89 2.83-2.69 5.66-5.39 8.49-8.08 5.88-5.59 2.54-13.16-4.2-15.67-8.26-3.07-18.19.76-24.21 6.49z"/><path class="st0" d="M1051.57 642.07c-59.62 29.64-94.51 82.9-90.67 150.7.49 8.67 31.2-2.62 34.01-7.53 15.41-26.9 33-51.07 54.01-73.99-10.81 1.37-21.62 2.74-32.43 4.1-22.32 38.62-39.45 77.91-52.55 120.55-2.24 7.28 30.71 2.72 33.8-5.89 14.98-41.84 33.48-80.69 56.51-118.7-11.27 1.96-22.53 3.93-33.8 5.89-17.49 36.17-29.88 72.51-38.14 111.86-2.03 9.69 30.03-.19 33.8-5.89 32.29-48.86 69.99-95.01 118.21-129.06a294.84 294.84 0 0 1 42.46-25.26c44.54 5.2 61.59-3.12 51.13-24.95-17.86 3.56-38.52 15.45-54.39 23.47-74.57 37.69-135.56 94.14-181.85 163.33-4.11 6.14 17.78 2.79 18.39 2.61 46.62-14.39 81.18-42.64 121.17-69.97 65.23-44.57 135.54-79.57 209.64-106.78 22.96-8.43 1.27-12.73-11.97-8.27-107.96 36.4-240.93 88.3-305.77 187.77-4.67 7.16 24.8.5 26.82-.47 120.35-57.83 216.76-188.92 357.59-194.53 6.4-.25 35.23-14.24 18.4-14.28-144.72-.32-284.95 51.9-383.19 160.36-8.22 9.08 24.59 2.54 28.68-.47 104.2-76.74 218.75-135.04 342.73-172.45l-18.39-2.61c.12-.37-93.3 3.5-101.59 5.26-37.3 7.9-72.83 22.32-106.85 39.29-78.62 39.2-148.99 92.28-210.97 154.29-3.92 3.92.81 5.81 4.48 6.01 42.47 2.32 76.63-10.74 113.57-31.54 76.4-43.01 147.15-89.81 231.18-117.83-5.3-2.2-10.6-4.41-15.91-6.61-107.63 48.3-214.39 98.71-299.22 182.68-8.87 8.77 25.02 1.71 28.68-.47 17.86-10.68 23.52-17.93 26.13-39.35.88-7.24-27.61 1.9-30.27 3.9-28.73 21.63-40.17 48.81-28.78 83.89 2.54 7.82 32.64-.65 34.01-7.53 3.71-18.65 3.17-26.85-7.09-44.05-4.33-7.26-35.92.71-34.23 9.17 4.46 22.24 10.14 38.32 20.62 58.42 11.41-3.06 22.82-6.11 34.23-9.17l-23.55-34.26c-4.6-6.69-32.44-.45-34.01 7.53-3.36 17.08-2.97 25.59 4.81 42.03 11.41-3.06 22.82-6.11 34.23-9.17-11.26-20.48-23.51-37.36-39.36-54.49-5.51-5.94-32.59 2.18-33.22 10.48-2.63 34.39 4.69 59.33 25.08 86.78 5.14 6.92 34.36.14 34.23-9.17-.39-27.13-9.71-45.91-30.01-63.41-5.3-4.57-34.49 1.76-33.22 10.48 6.83 47.1 26.42 85.54 59.63 119.16 6.38 6.46 28.96-2.57 33-8.84 16.37-25.41 13.09-47.26 14.32-76.27 2.32-54.74 31.37-60.86 66.12-95.27-10.81 1.37-21.62 2.74-32.43 4.1-18.22 28.08-36.44 56.17-54.65 84.25-4.33 6.67 26.84.1 30.05-2.26 28.21-20.73 46.23-42.23 60.17-74.49 3.39-7.84-20.94-1.83-22.88-1.19-38.2 12.71-64.53 34.89-76.68 74.34-2.19 7.1 16.33 3.24 18.39 2.61 61.77-19.2 110.12-52.58 145.2-107.74 2.65-4.16-28.31-2.73-33.8 5.89-27.69 43.54-63.87 75.05-114.38 90.75l18.39 2.61c8.96-29.08 23.7-49.81 54.85-60.18-7.63-.4-15.25-.79-22.88-1.19-12.14 28.08-27.59 48.78-52.68 67.23 10.02-.75 20.03-1.51 30.05-2.26 18.22-28.08 36.44-56.17 54.65-84.25 3.86-5.94-28.04-.24-32.43 4.1-27.84 27.56-57.65 30.92-67.43 71.88-8.49 35.53 5.52 70.21-15.75 103.24 11-2.95 22-5.9 33-8.84-33.35-33.77-50.88-70.14-57.61-116.54-11.07 3.49-22.15 6.99-33.22 10.48 20.95 18.05 27.61 34.26 28 60.78 11.41-3.06 22.82-6.11 34.23-9.17-20.56-27.69-27.68-52.69-25.08-86.78-11.07 3.49-22.15 6.99-33.22 10.48 14.75 15.93 26.89 32.84 37.35 51.86 4.54 8.25 37.17-2.96 34.23-9.17-7.86-11.64-9.6-24.56-5.24-38.75L996 872.87l23.55 34.26c5.27 7.67 37.37-3.15 34.23-9.17-10.49-20.11-16.16-36.19-20.62-58.42-11.41 3.06-22.82 6.11-34.23 9.17 9.91 11.57 12.42 25.16 7.52 40.77l34.01-7.53c-8.99-27.69-5.25-53.7 20.86-73.35l-30.27 3.9c-6.07 9.6-12.14 19.21-18.21 28.81 9.56-.16 19.12-.32 28.68-.47 81.72-80.89 184.42-128.91 288.01-175.4 19.69-8.83-8.15-9.2-15.91-6.61-58.57 19.53-113.44 46.17-166.84 77.07-30.85 17.85-73.04 56.9-108.95 56.81-33.96-.09-.65-13.85 12.37-25.24a801.783 801.783 0 0 1 59.26-47.09c30.81-22.17 63.62-42.59 97.72-59.26 37.96-18.56 70.74-28.3 113.12-30.54 18.17-.96 39.46.55 58.1-.59 19.53-1.2 44.18-3.19 51.17-24.26 2.35-7.08-16.47-3.18-18.39-2.61-132.2 39.88-254.8 100.24-366.06 182.18 9.56-.16 19.12-.32 28.68-.47 85.8-94.71 202.29-143.99 330.04-143.7 6.13-4.76 12.27-9.52 18.4-14.28-160.18 6.39-256.7 138.71-392.14 203.79 8.94-.16 17.88-.31 26.82-.47 59.95-91.97 184.3-140.01 283.94-173.61-3.99-2.76-7.98-5.51-11.97-8.27-49.04 18.01-96.79 38.72-142.62 63.87-58.91 32.32-115.27 90.31-179.2 110.05l18.39 2.61c56.56-84.56 135.15-146 231.8-178.49 15.06-5.06 11.85-12.74-2.87-10.71-119.44 16.47-207.42 95.61-272.07 193.44 11.27-1.96 22.53-3.93 33.8-5.89 8.25-39.32 20.64-75.66 38.14-111.86 2.93-6.07-29.14-1.79-33.8 5.89-23.03 38.01-41.53 76.86-56.51 118.7 11.27-1.96 22.53-3.93 33.8-5.89 13.1-42.64 30.23-81.93 52.55-120.55 3.71-6.42-28.2-.5-32.43 4.1-22.16 24.17-40.4 49.02-56.75 77.57l34.01-7.53c-3.3-58.31 22.25-109.71 76.28-136.56 20.23-10.06-11.44-9.14-19.84-4.97z"/><path class="st0" d="M1158.52 785.94c-30.46 37.29-75.3 58.84-100.06 101.24-6.34 10.85 12.39 11.12 18.29 9.16 61.38-20.38 114.84-53.33 158.7-101.13 5.01-5.47 4.01-10.04-3.3-12.33-29.49-9.23-54.11 11.01-77.61 26.9-35.52 24.02-69.62 49.96-102.61 77.33-15.72 13.04 17.63 11.84 24.41 8.13 61.16-33.48 122.31-66.96 183.47-100.44 20.16-11.04-9.94-16.65-21.31-10.43-61.16 33.48-122.31 66.96-183.47 100.44 8.14 2.71 16.27 5.42 24.41 8.13 22.59-18.74 45.62-36.9 69.48-54.01 11.12-7.97 47.69-41.83 62.34-37.25l-3.3-12.33c-37.68 41.07-82.75 71.9-135.86 89.54 6.1 3.05 12.19 6.11 18.29 9.16 24.4-41.78 69.82-64.21 100.06-101.24 9.57-11.72-24.76-9.64-31.93-.87z"/><path class="st0" d="M1047.16 874.91c69.93-41.65 138.87-87.73 218.06-109.68 20.92-5.8 15.07-28.23-6-22.39-85.2 23.62-159.27 72.55-234.52 117.37-19.8 11.8 8.79 22.85 22.46 14.7z"/><path class="st0" d="M1098.51 835.25c44.92-24 90.79-42.73 139.67-57.22l-9.18-16.05c-43.18 18.44-90.72 33.9-132 56.38-17.58 9.57-28.87 15.47-36.65 34.91-3.77 9.41 16.44 7.54 19.48 6.7 47.03-12.95 92.01-29.44 136.19-50.16-5.83-4.18-11.66-8.35-17.49-12.53-55.65 29.18-107.56 63.05-156.99 101.78-12.61 9.88 8.98 14.12 16.12 11.76 28.02-9.27 56.03-18.53 84.05-27.8l-9.18-16.05c-27.68 13.15-50.61 28.56-72.56 50.02-13.73 13.42 13.71 12.64 20.59 10.23a985.329 985.329 0 0 0 102.57-42.62c-4.55-4.84-9.09-9.68-13.64-14.51-43.6 21.66-82.38 47.71-118.4 80.47-13.82 12.57 13.51 13.4 20.59 10.23 30.7-13.76 61.4-27.53 92.09-41.29-5.83-4.18-11.66-8.35-17.49-12.53-31.13 21.11-58.77 44.44-84.44 72.05-10.48 11.27 7.69 14.39 16.12 11.76 59.31-18.48 110.47-46.99 156.58-88.73 15.28-13.83-17.57-12.1-24.44-8.25-36.27 20.32-65.95 45.16-92.89 76.8-10.45 12.26 21.78 8.98 26.64 5.75 21.41-14.21 42.82-28.43 64.22-42.64 20.03-13.3-10.61-16.09-21.34-10.55-38.43 19.84-68.65 45.86-94.34 80.5-9.05 12.21 18.15 9.77 22.79 7.73 27.15-11.9 51.09-26.23 74.61-44.26 15.54-11.91-16.96-12.79-24.44-8.25-22.74 13.82-40.94 29.61-58.2 49.87-11.07 13 24.51 7.43 29.73 3.45 18.16-13.87 41.45-39.71 13.68-55.62-32.07-18.37-61.48 28.02-93.26 5.79-7.52-5.26-28.76.69-30.72 10.48-3.57 17.87-2.95 27.76 4.71 45.04 11-3.78 21.99-7.56 32.99-11.34-6.91-5-13.83-10-20.74-15-8.77 5.41-17.54 10.81-26.31 16.22 37.49 8.07 74.98 16.13 112.47 24.2 5.25 1.13 37.5-7.66 26.31-16.22a184.968 184.968 0 0 1-31.62-27.16c-10.58 4.51-21.17 9.01-31.75 13.52 14.43 12.82 26.26 20.17 44.84 26.73 6.47 2.28 41-6.35 29.46-15.15-9.14-6.97-18.27-13.94-27.41-20.91-8.02-6.12-41.13 1.16-31.75 13.52 14.33 18.88 29.7 32.01 49.89 43.77 7.44 4.33 39.37-5.2 29.46-15.15-17.6-17.69-46.39-10.92-58.96 9.39-4.12 6.66 3.51 10.44 9.36 10.38 78.13-.86 154.18-10.93 229.81-30.59l-9.18-16.05c-44.93 18.46-90.51 34.1-137.31 47.11-20.59 5.73-16.05 22.22 4.71 17.58 35.95-8.04 71.02-17.8 105.94-29.49-4.34-4.69-8.68-9.38-13.03-14.06-14.45 7.47-25.41 15.46-36.95 26.69-9.7 9.43 3.57 13.05 11.49 12.67l61.64-3c-1.51-5.65-3.03-11.3-4.54-16.95-29.54 11.5-59.35 21.12-89.97 29.21-10.96 2.9-23.15 18.11-4.25 18.69 99.5 3.06 191.04-27.22 269.37-88.55-9.18-1.98-18.36-3.96-27.53-5.95-47.31 44.31-106.23 57.08-167.77 68.53.03 6.16.05 12.32.08 18.48 62.76-16.94 115.55-47.97 159.41-96.24 13.61-14.97-16.95-13.02-24.44-8.25-43.58 27.79-88.79 49.71-137.91 65.95 4.34 4.69 8.68 9.38 13.03 14.06l66.51-41.52c18.59-11.61-6.87-16.83-17.49-12.53-54.46 22.03-143.73 61.47-202.18 36.04-28.02-12.19-46.41-34.33-76.3-43.47-6.96 6.3-13.91 12.61-20.87 18.91 53.77 15.53 107.54 31.07 161.31 46.6 5.68-6.45 11.36-12.91 17.04-19.36-60.15-4.43-113.91-19.87-167.7-47.25-9.73-4.95-41.65 8.51-27.18 16.79 67.87 38.84 135.53 73.43 215.56 69.92 7.69-.34 37.43-14.63 17.04-19.36-43.43-10.09-86.86-20.17-130.29-30.26-1.21 5.57-2.41 11.14-3.62 16.71 39.21-19.78 79.26-34.56 122.03-44.79 7.15-1.71 24.16-16.13 8.08-18.25-10.32-1.36-20.65-2.72-30.97-4.09l.24 14.73c19.72-11.31 39.43-22.62 59.15-33.93 18.48-10.6-6.51-17.67-17.49-12.53-31.87 14.9-63.74 29.81-95.61 44.71-21.7 10.15-1.92 20.96 13.64 14.51 40.08-16.61 75.95-37.6 110.37-63.99 15.34-11.76-14.51-12.39-20.59-10.23-38.61 13.73-75.04 30.38-110.86 50.18 7.11 3.52 14.23 7.03 21.34 10.55l109.76-79.25c17.86-12.9-6.66-16.55-17.49-12.53-51.51 19.11-99.54 43.29-145.61 73.2-19.8 12.85 10.34 16.76 21.34 10.55 30.25-17.08 60.49-34.17 90.74-51.25 18.82-10.63-6.74-17.12-17.49-12.53-43.67 18.62-85.57 39.81-126.48 63.87-18.9 11.12 6.95 16.74 17.49 12.53 49.48-19.74 98.95-39.47 148.43-59.21-5.83-4.18-11.66-8.35-17.49-12.53l-125.79 74.94c-20.07 11.96 10.18 16.74 21.34 10.55a846.287 846.287 0 0 0 70.68-43.81c19.41-13.39-10.34-17.08-21.34-10.55l-82.83 49.17c-19.92 11.82 10.05 17.09 21.34 10.55 57.84-33.47 111.06-72.17 160.77-116.79 11.98-10.75-8.7-13.86-16.12-11.76-37.67 10.65-73.66 23.53-109.52 39.38 5.83 4.18 11.66 8.35 17.49 12.53 32.56-19.63 66.06-36.44 101.21-50.9-4.55-4.84-9.09-9.68-13.64-14.51-40.56 19.34-81.13 38.69-121.69 58.03 5.83 4.18 11.66 8.35 17.49 12.53 47.18-28.76 94.36-57.53 141.54-86.29 15.78-9.62-1.84-17.75-13.03-14.06-46.2 15.22-89.96 34.25-132.46 57.87 7.11 3.52 14.23 7.03 21.34 10.55 41.58-24.95 81.14-52.21 119.43-81.91 14.7-11.4-13.78-13.29-20.59-10.23-42.13 18.94-84.27 37.87-126.4 56.81 5.83 4.18 11.66 8.35 17.49 12.53 39.61-22.6 79.21-45.21 118.82-67.81 20.39-11.63-10.27-16.28-21.34-10.55-42.26 21.85-84.51 43.71-126.77 65.56 7.11 3.52 14.23 7.03 21.34 10.55 29.14-19.3 58.27-38.6 87.41-57.91 18.15-12.02-6.67-17.09-17.49-12.53-32.87 13.84-65.75 27.68-98.62 41.53 5.83 4.18 11.66 8.35 17.49 12.53 31.45-21.64 62.91-43.27 94.36-64.91 18.06-12.43-6.7-16.8-17.49-12.53-56.58 22.41-111.46 47.96-165.19 76.5-18.63 9.9 6.38 17.73 17.49 12.53 48.03-22.49 96.07-44.97 144.1-67.46 22.09-10.34 1.74-19.92-13.64-14.51-21.36 7.51-40.09 16.31-59.63 27.51 7.11 3.52 14.23 7.03 21.34 10.55 29.44-18.36 57.01-38.28 83.76-60.37 14.15-11.69-13.47-13.78-20.59-10.23a857.003 857.003 0 0 1-90.77 38.89c5.83 4.18 11.66 8.35 17.49 12.53l88.8-56.76c15.6-9.97-1.75-17.55-13.03-14.06-23.04 7.12-46.08 14.25-69.13 21.37 4.34 4.69 8.68 9.38 13.03 14.06 22.34-16.2 42.6-33.33 61.91-53.14 10.82-11.1-7.92-14.39-16.12-11.76-20.47 6.55-39.52 13.88-58.95 23.24-21.43 10.32-1.91 21.54 13.64 14.51 18.59-8.4 37.17-16.81 55.76-25.21 21.71-9.81 1.93-21.31-13.64-14.51-19.69 8.59-39.38 17.18-59.07 25.78 5.83 4.18 11.66 8.35 17.49 12.53 26.26-16.47 50.35-34.48 73.61-55.05 14.08-12.46-13.67-13.21-20.59-10.23-42.64 18.4-82.65 40.04-121.3 65.83 7.11 3.52 14.23 7.03 21.34 10.55 81.32-55.41 168.58-96.98 263.08-124.51l-4.71-17.58c-93.69 31.22-184.94 67.77-274.07 110.32 5.83 4.18 11.66 8.35 17.49 12.53 62.22-36.35 126.46-67.98 193.13-95.26 18.36-7.51 6.86-21.49-9.18-16.05-86.91 29.51-170.36 65.61-251.3 108.91 7.11 3.52 14.23 7.03 21.34 10.55 17.31-10.77 35.89-17.5 55.73-20.18-6.11-3.09-12.21-6.18-18.32-9.27-18.36 23.55-37.33 46.31-57.32 68.52-13.33 14.8 16.81 13.56 24.44 8.25 1.65-1.15 5.48 82.06 9.19 91.24 1.64 4.05 6.48 5.39 10.51 5.32l76.48-1.44c13.04-.25 36.2-20.24 13.21-19.81-36.17.68-74.13 13.81-69.15-32.46 1.9-17.67 8.77-35.82-3.79-51.22-15.23-18.67-40.37-14.33-57.79-2.19 8.15 2.75 16.29 5.5 24.44 8.25 21.45-23.82 42-48.22 61.72-73.51 8.38-10.75-13.96-10.13-18.32-9.27-26.58 5.25-48.84 13.94-72.36 27.21-20.26 11.43 10.1 16.56 21.34 10.55 75.52-40.4 153.56-74.35 234.66-101.88l-9.18-16.05c-69.4 28.4-136.09 61.41-200.83 99.22-18.37 10.73 6.48 17.79 17.49 12.53 86.24-41.17 174.46-77.04 265.14-107.25 19.85-6.61 16.12-23.65-4.71-17.58-100.16 29.18-193.48 72.79-279.71 131.54-19.15 13.05 10.23 17.97 21.34 10.55 36.16-24.13 73.65-44.62 113.6-61.86-6.86-3.41-13.72-6.82-20.59-10.23-21.22 18.77-43.38 35.36-67.42 50.44-18.35 11.51 6.68 17.25 17.49 12.53 19.69-8.59 39.38-17.18 59.07-25.78-4.55-4.84-9.09-9.68-13.64-14.51-18.59 8.4-37.17 16.81-55.76 25.21 4.55 4.84 9.09 9.68 13.64 14.51a262.938 262.938 0 0 1 50.02-20.17c-5.37-3.92-10.75-7.84-16.12-11.76-17.77 18.23-34.82 33.38-55.72 48.54-14.64 10.62 1.15 17.74 13.03 14.06 23.04-7.12 46.08-14.25 69.13-21.37-4.34-4.69-8.68-9.38-13.03-14.06l-88.8 56.76c-18.79 12.01 7.13 16.28 17.49 12.53a857.596 857.596 0 0 0 90.77-38.89c-6.86-3.41-13.72-6.82-20.59-10.23-24.73 20.42-50.39 38.81-77.57 55.77-19.86 12.39 10.22 16.92 21.34 10.55 16.28-10.24 33.59-18.09 51.93-23.55-4.55-4.84-9.09-9.68-13.64-14.51-48.03 22.49-96.07 44.97-144.1 67.46 5.83 4.18 11.66 8.35 17.49 12.53 51.26-27.23 103.55-51.17 157.49-72.53-5.83-4.18-11.66-8.35-17.49-12.53-31.45 21.64-62.91 43.27-94.36 64.91-17.9 12.31 6.58 17.13 17.49 12.53 32.87-13.84 65.74-27.68 98.62-41.53-5.83-4.18-11.66-8.35-17.49-12.53-29.14 19.3-58.27 38.6-87.41 57.91-20.03 13.27 10.6 16.1 21.34 10.55 42.26-21.85 84.51-43.71 126.77-65.56-7.11-3.52-14.23-7.03-21.34-10.55-39.61 22.6-79.21 45.21-118.82 67.81-18.62 10.63 6.6 17.43 17.49 12.53 42.13-18.94 84.27-37.87 126.4-56.81-6.86-3.41-13.72-6.82-20.59-10.23-36.27 28.14-73.9 53.7-113.24 77.31-20.05 12.03 10.19 16.75 21.34 10.55 37.34-20.75 75.3-37.49 115.83-50.84-4.34-4.69-8.68-9.38-13.03-14.06-47.18 28.76-94.36 57.53-141.54 86.29-18.22 11.11 6.51 17.77 17.49 12.53 40.56-19.34 81.13-38.69 121.69-58.03 21.64-10.32 1.92-20.91-13.64-14.51-37.98 15.62-73.74 33.66-108.91 54.86-18.49 11.14 6.67 17.31 17.49 12.53 32.83-14.5 66.01-26.54 100.59-36.31-5.37-3.92-10.75-7.84-16.12-11.76-47.78 42.89-99.05 80.05-154.58 112.19 7.11 3.52 14.23 7.03 21.34 10.55l82.83-49.17c-7.11-3.52-14.23-7.03-21.34-10.55a846.287 846.287 0 0 1-70.68 43.81c7.11 3.52 14.23 7.03 21.34 10.55l125.79-74.94c18.85-11.23-6.95-16.74-17.49-12.53-49.48 19.74-98.95 39.47-148.43 59.21 5.83 4.18 11.66 8.35 17.49 12.53 38.39-22.58 77.81-42.44 118.77-59.91-5.83-4.18-11.66-8.35-17.49-12.53-30.25 17.08-60.49 34.17-90.74 51.25 7.11 3.52 14.23 7.03 21.34 10.55 43.7-28.37 89.07-51.11 137.91-69.23-5.83-4.18-11.66-8.35-17.49-12.53l-109.76 79.25c-19.39 14 10.47 16.56 21.34 10.55 33.32-18.41 67.35-33.49 103.16-46.22-6.86-3.41-13.72-6.82-20.59-10.23-30.22 23.17-61.29 40.84-96.48 55.42 4.55 4.84 9.09 9.68 13.64 14.51 31.87-14.9 63.74-29.81 95.61-44.71-5.83-4.18-11.66-8.35-17.49-12.53-19.72 11.31-39.43 22.62-59.15 33.93-6.36 3.65-10.16 13.36.24 14.73 10.32 1.36 20.65 2.72 30.97 4.09 2.69-6.08 5.39-12.16 8.08-18.25-45.88 10.97-88.82 26.59-130.96 47.85-6.92 3.49-16.86 13.64-3.62 16.71 43.43 10.09 86.86 20.17 130.29 30.26 5.68-6.45 11.36-12.91 17.04-19.36-74.83 3.28-138.56-30.83-201.59-66.9-9.06 5.6-18.12 11.19-27.18 16.79 57.72 29.39 117.06 45.52 181.67 50.27 9.16.67 36.28-13.8 17.04-19.36-53.77-15.53-107.54-31.07-161.31-46.6-11.06-3.2-40.21 13-20.87 18.91 53.77 16.45 76.92 55.92 137.58 51.58 60.12-4.3 120.03-26.14 175.42-48.55-5.83-4.18-11.66-8.35-17.49-12.53l-66.51 41.52c-15.63 9.76 1.76 17.79 13.03 14.06 54.87-18.14 105.8-41.89 154.54-72.97-8.15-2.75-16.29-5.5-24.44-8.25-37.88 41.69-81.67 69.78-136.59 84.6-15.18 4.1-20.52 22.32.08 18.48 73.16-13.61 144.1-29.74 199.86-81.97 15.13-14.17-19.39-12.32-27.53-5.95-66.48 52.05-144.37 77.27-228.63 74.69-1.42 6.23-2.83 12.46-4.25 18.69 33.72-8.91 66.4-19.62 98.9-32.28 15.81-6.15 10.39-17.68-4.54-16.95l-61.64 3c3.83 4.22 7.66 8.44 11.49 12.67 8.63-9.78 18.88-17.14 30.76-22.08 16.52-8.54-2.15-17.7-13.03-14.06-34.93 11.69-70 21.45-105.94 29.49l4.71 17.58c49.86-13.87 98.37-30.51 146.24-50.18 18.81-7.73 6.7-20.17-9.18-16.05-69.9 18.17-139.68 27.57-211.9 28.36l9.36 10.38c-1.57 1.06-3.15 2.11-4.72 3.17l29.46-15.15c-20.73-12.07-31.52-22.31-45.32-40.5-10.58 4.51-21.17 9.01-31.75 13.52 9.14 6.97 18.27 13.94 27.41 20.91l29.46-15.15c-15.54-3.8-28.96-11.62-40.27-23.46-8.83-7.84-41.35 4.28-31.75 13.52a185.35 185.35 0 0 0 31.62 27.16c8.77-5.41 17.54-10.81 26.31-16.22-37.49-8.07-74.98-16.13-112.47-24.2-5.24-1.13-37.59 8.06-26.31 16.22 6.91 5 13.83 10 20.74 15 6.48 4.69 38.63 1.38 32.99-11.34-7.81-12.18-9.37-25.53-4.68-40.04-10.24 3.49-20.48 6.99-30.72 10.48 15.68 10.96 28.36 14.92 47.27 12.57 4.69-.58 12.09-3.48 16.85-3.68 1.28-.66 2.57-1.32 3.85-1.98 17.76-14.72 21.52-7.99 11.25 20.18l29.73 3.45c12.99-16.83 28.86-30.26 47.61-40.27-8.15-2.75-16.29-5.5-24.44-8.25-18.33 15.15-38.57 27.05-60.72 35.7 7.6 2.58 15.19 5.16 22.79 7.73 22.91-30.89 49.91-53.44 83.75-70.91-7.11-3.52-14.23-7.03-21.34-10.55-21.41 14.21-42.82 28.43-64.22 42.64 8.88 1.92 17.76 3.83 26.64 5.75 24.05-28.23 49.95-49.07 82.3-67.2-8.15-2.75-16.29-5.5-24.44-8.25-39.47 35.73-82.79 61.21-133.76 77.09 5.37 3.92 10.75 7.84 16.12 11.76 23.98-25.79 49.04-47.64 78.25-67.44 17.83-12.09-6.5-17.46-17.49-12.53-30.7 13.76-61.4 27.53-92.09 41.29 6.86 3.41 13.72 6.82 20.59 10.23 31.9-29.02 65.86-52.7 104.51-71.9 21.22-10.54 1.84-21.99-13.64-14.51a987.14 987.14 0 0 1-102.57 42.62c6.86 3.41 13.72 6.82 20.59 10.23 17.81-17.42 35.95-30.67 58.67-41.46 17.71-8.41 7.17-21.45-9.18-16.05-28.02 9.27-56.03 18.53-84.05 27.8 5.37 3.92 10.75 7.84 16.12 11.76 47.47-37.21 97.42-69.19 150.79-97.18 18.64-9.77-6.34-17.76-17.49-12.53-41.25 19.35-83.3 34.99-127.26 47.1 6.49 2.23 12.99 4.47 19.48 6.7 8.99-22.46 52.79-31.93 72.61-40.39 25.14-10.74 50.29-21.48 75.43-32.21 18.41-7.86 6.9-20.81-9.18-16.05-54.52 16.16-106.14 37.45-156.3 64.25-20.15 10.85 9.98 16.71 21.45 10.58z"/><path class="st0" d="M1307.42 753.83c22.29 17.02 40.35 35.01 57.76 56.77 8.63-5.94 17.25-11.88 25.88-17.82-30.24-7.84-51.54-22.47-70.26-47.44-8.2-10.94-39.75.03-31.52 14.39 11.62 20.29 23.24 40.59 34.87 60.88 8.63-5.94 17.25-11.88 25.88-17.82-17.63-2.84-33.35-9.67-47.16-20.48-8.95-5.8-32.86.4-30.48 13.81 5.13 28.84 15.91 44.5 39.18 61.61 7.98 5.87 29.53.36 30.61-10.88 2.77-28.81-.78-50.9-13.84-77.19-6.41-12.9-36.83-6.04-34.23 9.17 2.96 17.32 8.76 24.86 23.38 34.15 9.32 5.92 32.28-.4 30.48-13.81-4.01-29.86-14.17-51.41-34.34-73.71-1.57 4.63-3.14 9.27-4.71 13.9 9.06-5.31 18.12-10.62 27.17-15.93-8.94.17-17.87.33-26.81.5 17.69 30.43 56.33 48.07 62.64 84.21 10.96-3.93 21.91-7.86 32.87-11.78-15.59-15.95-31.18-31.91-46.77-47.86-9.71 5.48-19.42 10.95-29.12 16.43 15.23 11.09 30.45 22.19 45.68 33.28 8.82 6.43 38.56-3.4 29.12-16.43-5.57-7.7-11.15-15.39-16.72-23.09-8.05-11.12-39.5-.06-31.52 14.39 23.48 42.56 56.5 107.35 5.41 146.87 9.43 1.68 18.87 3.37 28.3 5.06 2.44-35.94 9.15-66.6 23-100.28-11.15.11-22.29.22-33.44.34-8.85 60.14-29.2 113.91-62.22 164.85 11.15-.11 22.29-.22 33.44-.34 18.5-54.38 36.99-108.75 55.49-163.13 4.94-14.51-26.41-8.53-31.33-2.49-23.77 29.22-41.91 59.31-55.88 94.46-7.06 17.76 26.14 13.76 32.38 2.62 17.9-31.99 27.59-61.86 31.52-98.63 1.74-16.27-25.35-7.99-31.33-2.49-24.99 23-36.88 45.43-41.62 79.05-2.18 15.44 25.8 9.07 31.33 2.49 15.45-18.4 24.44-36.09 29.41-59.69 2.55-12.1-18.71-10.4-24.49-7.2-21.89 12.08-31.18 21.66-38.67 45.59-3.86 12.33 19.51 9.49 24.49 7.2 8.86-2.93 17.71-5.85 26.57-8.78l-14.34-12.6c-6.73 13.43-13.45 26.87-20.18 40.3-6.77 13.51 16.18 14.21 23.44 10.16 57.27-31.96 19.5-90.11 37.67-142.53 5.13-14.79-28.47-8.53-33.44.34-15.3 27.32-15.81 53.36-15.39 84.19.76 55.85-13.73 88.53-60.51 122.63 8.38 3.61 16.76 7.23 25.13 10.84 27.31-24.77 56.03-46.39 87.08-66.1-8.38-3.61-16.76-7.23-25.13-10.84-16.91 20.77-33.82 41.55-50.73 62.32-13.1 16.1 16.06 17.28 25.13 10.84 26.25-18.63 42.85-38.72 54.46-68.88-11.15.11-22.29.22-33.44.34-6.39 34.83-18.64 61.56-41.53 88.53 10.09 1.82 20.18 3.63 30.27 5.45l56.03-77.15c-11.15.11-22.29.22-33.44.34l1.95 51.87c11.45-2.08 22.91-4.15 34.36-6.23-6.69-19.19-6-37.66 2.07-55.42-11.45 2.08-22.91 4.15-34.36 6.23 4.87 22.25 5.21 42.71 1.25 65.13 11.45-2.08 22.91-4.15 34.36-6.23-5.2-27-3.29-41.16 5.34-65.36-11.5 1.1-22.99 2.19-34.49 3.29-9.3 45.72-46.34 78.24-97.04 69.62-4.15 7.55-8.3 15.11-12.44 22.66 38.76 3.27 72.32-.04 109.7-10.82 15.97-4.61 19.83-23.76-.95-21.73-1.61.16-3.22.31-4.83.47-6.76.66-18.13 4.87-19.1 12.93l-.72 5.97c-.34 2.86 1.12 6.3 3.88 7.58 39.36 18.27 101.42-16.63 137.86-31.62 19.43-8 5.99-22.47-10.04-19.29-63.89 12.68-127.99 21.62-192.86 27.26 3.07 6 6.13 11.99 9.2 17.99 11.05-8.84 65.9 5.44 81.51 5.23 29.71-.4 59-6.21 86.8-16.63 48.63-18.22 86.97-49.63 117.23-91.4 10.99-15.17-23.79-11.36-30.27-5.45-31.48 28.69-64.97 53.38-101.39 75.4 8.38 3.61 16.76 7.23 25.13 10.84 25.43-29.33 53.41-51.44 88.29-68.57-6.1-5.18-12.2-10.37-18.3-15.55-63.46 47.95-130.05 90.02-200.82 126.38-17.24 8.86-7.06 25.3 10.04 19.29 79.96-28.09 149.41-72.43 219.22-119.75-8.38-3.61-16.76-7.23-25.13-10.84-22.24 27.6-47.13 49.88-77.05 68.74-17.86 11.26 5.89 21.96 18.3 15.55 49.81-25.73 91.3-58.17 127.38-101.28l-28.16-8.28c-33.01 40.88-70.47 73.25-115.73 99.93-18.11 10.68 5.83 21.87 18.3 15.55 47.37-24.01 83.88-55.61 114.07-99.33-10.79-.87-21.59-1.75-32.38-2.62-21.85 38.53-48.49 67.35-85.08 91.94 7.37 4.47 14.74 8.93 22.11 13.4 56.11-46.57 152.83-154.57 98.55-231.28-7.16-10.12-35.97-1.76-32.87 11.78 10.25 44.76-4.59 85.54-43.27 110.74 9.43 1.69 18.87 3.37 28.3 5.06 10.84-41.66 16.44-82.52 17.2-125.59-11.5 1.1-22.99 2.19-34.49 3.29 1.57 37.42 3.03 73.58-23.89 104.13l31.19-.45c-4.95-18.33-4.54-36.3 1.23-53.9-11.45 2.08-22.91 4.15-34.36 6.23.75 12.74 1.5 25.48 2.26 38.22.79 13.46 33.33 5.75 34.36-6.23 5.02-58.43-8.98-110.21-42.81-158.14-10.51 4.8-21.01 9.6-31.52 14.39 20.54 26.81 41.08 53.62 61.61 80.43 10.51-4.8 21.01-9.6 31.52-14.39-29.91-38.38-50.43-79.13-63.53-125.99-10.16 4.6-20.32 9.21-30.48 13.81 48.6 28.24 74.97 71.75 79.37 127.46 10.96-3.93 21.91-7.86 32.87-11.78-31.6-46.6-59.21-94.52-83.46-145.41-10.16 4.6-20.32 9.21-30.48 13.81 47.41 24.71 77.72 59.63 95.07 110.28 10.96-3.93 21.91-7.86 32.87-11.78-23.43-35.96-39.33-72.94-49.72-114.47l-27.24 15.21c57.63 14.88 58.25 76.4 56.23 123.99 10.2-3.63 20.41-7.25 30.61-10.88-19.36-10.49-17.68-55.73-25.47-74.74-9.07-22.15-22.87-41.41-40.9-57.19-42.81-37.46-99.32-35.73-148.83-59.46-7.83 6.62-15.66 13.24-23.49 19.85 31.52 6.19 141.18 17.19 145.69 60.03 10.96-3.93 21.91-7.86 32.87-11.78-65.42-56.07-205.13-152.63-288.76-81.56-10.48 8.9 4.11 16.25 12.23 15.43 78.8-7.99 151.75 7.96 220.26 47.11 3.52-6.56 7.04-13.11 10.57-19.67-23.37 5.25-61.3-32.36-82.09-42.04-23.42-10.9-48.31-18.35-73.74-22.73-51.75-8.92-103.01-3.17-152.45 13.65 3.35 6.43 6.7 12.86 10.04 19.29 13.94-6.92 17.45-8.87 20.82-24.37 2.29-10.53-14.58-10.07-20.04-8.8-36.44 8.49-66.8 22.04-97.52 43.34-15.26 10.58 1.52 20.67 13.85 17.14 87.17-24.95 230.01-63.81 309.96-4.13 8.91-6.15 17.82-12.31 26.73-18.46-87.82-42.95-179.69-54.48-275.54-36.92 1.87 6.96 3.73 13.92 5.6 20.88 112.21-27.66 224.02-.74 314.06 70.5 7.83-6.62 15.66-13.24 23.49-19.85-23.21-8.88-46.41-17.77-69.62-26.65-8.33-3.19-30.32 3.12-27.24 15.21 4.41 17.26 11.06 30.38 20.11 45.45 8.63-5.94 17.25-11.88 25.88-17.82-13-5.43-129.47-60.62-130.92-59.3l-29.84 3.06c.4.24.79.47 1.19.71l22.41-10.02c-55.73-8.03-108.94-.66-163.57 11.4-36.81 8.12-74.53 15.66-100.07 45.46-31.35 36.57-46.66 93.25-59.51 138.81-11.34 40.2-18.39 82.19 12.23 115.25 9.71-5.48 19.42-10.95 29.12-16.43-14.58-10.01-27.35-15.84-44.13-20.63-9.05-2.58-29.46 2.54-27.24 15.21 5.12 29.14 15.93 49.6 37.78 70.21 10.51-4.8 21.01-9.6 31.52-14.39l-46.88-40.52c-7.96-6.88-37.32-3.44-32.87 11.78 13.32 45.55 40.78 78.1 83.71 98.56 9.71 4.63 32.17.51 30.48-13.81-3.34-28.26-11.33-46.66-29.01-68.78-8.46-10.59-40.21.21-31.52 14.39 23.31 38.04 70.19 107.62 126.43 90.09 47.69-14.87 9.83-64.13-15.52-80.95-9.13-6.06-40.49 6.59-29.12 16.43 41.44 35.85 87.1 53.44 142.18 53.17 14.95-.07 35.49-22.77 12.44-22.66-47.92.24-86.68-13.39-123.11-44.91-9.71 5.48-19.42 10.95-29.12 16.43 21.11 6.94 24.79 17.81 11.03 32.61-11.25-6.71-20.93-15.07-29.04-25.07-13.68-14.91-24.14-32.36-34.66-49.53-10.51 4.8-21.01 9.6-31.52 14.39 15.53 19.43 23.38 38.86 26.29 63.55 10.16-4.6 20.32-9.21 30.48-13.81-39.31-18.73-63.88-47.12-76.21-89.27-10.96 3.93-21.91 7.86-32.87 11.78l46.88 40.52c10.11 8.74 42.88-3.68 31.52-14.39-19.8-18.67-30.28-37.71-35.07-64.98l-27.24 15.21c14.14 2.86 26.69 8.8 37.65 17.84 8.72 5.99 39.94-4.75 29.12-16.43-46.64-50.35 2.95-152.9 27.42-203.01 36.37-74.49 168.16-81.14 239.54-70.85 8.09 1.17 18.04-3.18 22.41-10.02 1.01-1.58 2.03-3.17 3.04-4.75 1.42-2.22 1.66-6.51-.43-8.51-1.55-1.49-3.11-2.98-4.66-4.46-8.29-7.94-22.28-3.81-29.84 3.06-40.7 36.96 119.66 80.82 138.83 88.83 9.25 3.87 33.52-5.11 25.88-17.82-9.14-12.11-14.94-25.52-17.4-40.23l-27.24 15.21c23.21 8.88 46.41 17.77 69.62 26.65 10.13 3.88 37.83-8.51 23.49-19.85-99.08-78.4-224.28-103.02-346.39-72.92-21.36 5.26-15.29 24.71 5.6 20.88 84.16-15.42 166.69-2.92 243.22 34.5 10.62 5.2 42.57-6.64 26.73-18.46-90.77-67.76-243.8-26.48-342.29 1.71 4.62 5.71 9.23 11.43 13.85 17.14 25.96-18 50.59-28.77 81.01-35.86-6.68-2.93-13.36-5.86-20.04-8.8-.27 1.13-.55 2.25-.82 3.38-17.5 8.68-6.97 25.08 10.04 19.29 72.69-24.74 150.72-19.92 217.68 19.19 32.25 18.84 52.21 40.54 90.6 31.92 7.01-1.57 22.13-13.06 10.57-19.67-75.69-43.26-156.71-60.01-243.29-51.23 4.08 5.14 8.15 10.29 12.23 15.43 55.31-47 188.28 52.7 229.08 87.67 9.21 7.89 34.48 3.5 32.87-11.78-6.09-57.92-116.82-63.69-159.67-72.11-8.34-1.64-40.74 11.58-23.49 19.85 56.57 27.11 128.03 24.06 167 80.39 18.57 26.85 18.86 50.39 26.95 80.12 4.08 14.97 7.05 23.2 21.26 30.89 8.05 4.36 30.09 1.34 30.61-10.88 2.55-59.86-3.48-124.65-70.47-141.94-8.39-2.17-30.42 2.47-27.24 15.21 10.88 43.48 28.03 82.24 52.43 119.7 6.61 10.15 37.34 1.26 32.87-11.78-18.42-53.75-52.14-93.28-102.57-119.56-7.08-3.69-36.82.5-30.48 13.81 25.01 52.49 53.52 102.5 86.17 150.63 7.62 11.24 33.9 1.27 32.87-11.78-4.72-59.69-35.25-106.75-86.87-136.75-8.28-4.81-34.31.09-30.48 13.81 13.62 48.75 35.14 91.31 66.24 131.22 8.53 10.94 41.32-1.59 31.52-14.39-20.54-26.81-41.08-53.62-61.61-80.43-8.35-10.9-40.94 1.04-31.52 14.39 32.04 45.39 44.59 91.68 39.83 147.04 11.45-2.08 22.91-4.15 34.36-6.23-.75-12.74-1.5-25.48-2.26-38.22-.85-14.44-32.02-4.48-34.36 6.23-4.83 22.09-4.86 37.98-.97 59.78 2.27 12.69 25.89 5.58 31.19-.45 29.64-33.65 32.05-72.08 30.22-115.7-.69-16.38-34.25-10.48-34.49 3.29-.76 43.04-6.35 83.9-17.2 125.59-3.73 14.33 22.99 8.51 28.3 5.06 46.69-30.42 67.9-78.69 55.39-133.31-10.96 3.93-21.91 7.86-32.87 11.78 46.03 65.04-42.91 165.11-89.14 203.48-18.21 15.12 9.65 21.77 22.11 13.4 40.49-27.21 71.32-60.34 95.36-102.72 9.28-16.37-25.38-12.76-32.38-2.62-25.38 36.75-56.42 64.1-96.19 84.25 6.1 5.18 12.2 10.37 18.3 15.55 47.48-27.98 87.17-62.2 121.79-105.05 13.33-16.5-19.28-18.89-28.16-8.28-32.24 38.53-68.83 68.68-113.71 91.86 6.1 5.18 12.2 10.37 18.3 15.55 32.65-20.58 58.89-43.81 83.1-73.86 13.13-16.3-16.08-16.98-25.13-10.84-64.31 43.6-128.92 86.35-202.71 112.27 3.35 6.43 6.7 12.86 10.04 19.29 73.3-37.66 142.67-80.98 208.44-130.68 17-12.85-5.77-21.7-18.3-15.55-39.79 19.53-72.92 44.5-101.95 77.98-14.1 16.26 16.51 16.05 25.13 10.84 38.73-23.41 74.02-50.06 107.44-80.52-10.09-1.82-20.18-3.63-30.27-5.45-50.54 69.77-126.61 95.71-209.63 82.83-25.04-3.88-44.42-7.78-65.63 9.19-11.31 9.04-3.76 19.12 9.2 17.99 68-5.92 135.22-15.67 202.16-28.95-3.35-6.43-6.7-12.86-10.04-19.29-10.13 4.17-91 23.82-92.03 32.47-6.37 4.31-12.73 8.62-19.1 12.93 1.61-.16 3.22-.31 4.83-.47-.32-7.24-.63-14.49-.95-21.73-29.83 8.6-60.73 11.65-91.66 9.04-15.06-1.27-35.69 18.71-12.44 22.66 66.41 11.29 130.35-28.58 143.98-95.58 3.35-16.49-30.29-8.49-34.49 3.29-8.91 24.99-9.98 45.77-5.08 71.24 2.76 14.32 32.37 5.02 34.36-6.23 4.47-25.33 3.97-45.96-1.52-71.01-3.33-15.22-31.26-3.96-34.36 6.23-7.17 23.6-7.22 38.01-1.81 61.29 3.07 13.19 34.82 6.06 34.36-6.23l-1.95-51.87c-.65-17.38-27.27-8.15-33.44.34l-56.03 77.15c-10.1 13.91 23.23 13.74 30.27 5.45 25.52-30.07 40.75-61.3 47.86-100.1 2.82-15.4-29.47-9.97-33.44.34-9.6 24.93-21.91 42.28-44.19 58.1 8.38 3.61 16.76 7.23 25.13 10.84 16.91-20.77 33.82-41.55 50.73-62.32 13.4-16.46-16.21-16.51-25.13-10.84-33.42 21.21-63.86 44.67-93.13 71.22-14.93 13.54 16.09 17.43 25.13 10.84 26.45-19.28 53.75-39.54 66.16-71.04 18.97-48.16-6.22-99.71 20.02-146.57-11.15.11-22.29.22-33.44.34-8.04 23.2 1.37 110.92-17.67 121.54 7.81 3.39 15.62 6.77 23.44 10.16 6.73-13.43 13.45-26.87 20.18-40.3 4.61-9.2-6.88-13.95-14.34-12.6-19.71 3.57-26.54 5.29-44.77 13.66l24.49 7.2c6.23-8.2 12.45-16.4 18.68-24.6l-24.49-7.2c-2.36 18.61-10.06 34.64-23.08 48.12l31.33 2.49c3.66-25.97 15.99-49.72 35.29-67.48l-31.33-2.49c-3.61 33.77-12.68 62.82-29.41 92.72 10.79.87 21.59 1.75 32.38 2.62 13.11-32.99 29.17-61.16 51.66-88.8l-31.33-2.49c-18.5 54.38-36.99 108.75-55.49 163.13-5.3 15.57 28.44 7.37 33.44-.34 34.31-52.93 55.15-108.39 64.34-170.76 2.32-15.75-29.3-9.74-33.44.34-14.32 34.84-22.54 68.35-25.11 106.19-.94 13.78 21.6 10.24 28.3 5.06 61.51-47.57 36.18-116.35 4-174.67-10.51 4.8-21.01 9.6-31.52 14.39 5.57 7.7 11.15 15.39 16.72 23.09 9.71-5.48 19.42-10.95 29.12-16.43-15.23-11.09-30.45-22.19-45.68-33.28-8.83-6.44-39.96 5.34-29.12 16.43 15.59 15.95 31.18 31.91 46.77 47.86 8.38 8.58 35.43 2.87 32.87-11.78-6.93-39.68-46.13-56.38-65.35-89.43-4.96-8.54-21.09-2.86-26.81.5-9.06 5.31-18.12 10.62-27.17 15.93-4.17 2.44-8.81 9.36-4.71 13.9 18.76 20.74 27.97 41.22 31.63 68.49 10.16-4.6 20.32-9.21 30.48-13.81-5.3-8.29-10.59-16.58-15.89-24.86-11.41 3.06-22.82 6.11-34.23 9.17 12.71 25.58 16.52 40.78 13.58 71.31 10.2-3.63 20.41-7.25 30.61-10.88-20.11-13.06-30.68-30.5-31.68-52.32-10.16 4.6-20.32 9.21-30.48 13.81 17.89 11.58 33.26 18.19 53.65 23.27 9.25 2.3 33.72-4.13 25.88-17.82-11.62-20.29-23.24-40.59-34.87-60.88-10.51 4.8-21.01 9.6-31.52 14.39 21.51 28.68 46.86 45.31 81.53 54.3 7.72 2 36.02-5.15 25.88-17.82-18.54-23.18-39-42.86-62.55-60.84-10.61-8.17-41.38 7.2-26.65 18.45zM268.22 136.2c-6.17-12.7-10.44-24.16-14.1-37.8-6.23 5.62-12.47 11.24-18.7 16.85 37.55-3.32 75.11-6.63 112.66-9.95 15.11-1.33 37.93-7.89 52.57-4.64 14.11-6.23 18.88-2.89 14.31 10.04.37 7.25.75 14.5 1.12 21.75 6.3-4.55 12.6-9.1 18.91-13.64-3.31.51-6.62 1.03-9.93 1.54-18.52 2.87-26.42 28.14-3.18 24.54 3.31-.51 6.62-1.03 9.93-1.54 6.19-.96 19.35-5.06 18.91-13.64-1.55-30.2 2.73-53.13-31.86-54.91-58.09-2.98-122.21 10.79-180.25 15.91-7.5.66-21.4 6.81-18.7 16.85 3.66 13.63 7.94 25.1 14.1 37.8 7.07 14.61 40.87 4.55 34.21-9.16z"/><path class="st0" d="M366.35 136.45c8.77-.41 17.55-.83 26.32-1.24 11.47-.54 36.92-18.38 13.67-18.08-23.37.3-45.94 3.04-68.8 7.8-15.39 3.2-20.86 19.5-.45 16.52 16.7-2.44 33.06-5.79 49.37-10.14 15.06-4.01 21.12-18.79.45-16.52l-74.56 8.19-.45 16.52c9.12-2.02 15.15-4.5 23.22-9.15 6.39-3.68 10.33-11.55.19-13.16-19.02-3.02-36.78-1.69-55.17 4.17 5.97 2.59 11.95 5.17 17.92 7.76 9.13-9.7 2.04-19.45-9.54-21.11-7.91-1.13-28.27 2.23-27.74 13.34-.44 3.76.34 7.25 2.34 10.47 9.25-4.45 18.49-8.89 27.74-13.34-5.24-1.24-8.82-4.34-10.74-9.29-6.16 5.07-12.32 10.15-18.48 15.22 48.18-5.97 96.37-11.93 144.55-17.9l5.07-17.46c-28.2 4.78-56.4 9.56-84.59 14.34-10.01 1.7-31.37 19.18-9.37 17.77 16.14-1.03 32.28-2.07 48.42-3.1 3.12-5.92 6.25-11.85 9.37-17.77-6.43 1.14-12.86 2.27-19.29 3.41-9.84 1.74-31.72 17.92-9.37 17.77l22.86-.15c11.99-.08 36.61-18.23 13.67-18.08l-22.86.15c-3.12 5.92-6.25 11.85-9.37 17.77 6.43-1.14 12.86-2.27 19.29-3.41 9.89-1.75 31.44-19.18 9.37-17.77-16.14 1.03-32.28 2.07-48.42 3.1-3.12 5.92-6.25 11.85-9.37 17.77 28.2-4.78 56.4-9.56 84.59-14.34 15.46-2.62 29.22-20.45 5.07-17.46-48.18 5.97-96.37 11.93-144.55 17.9-5.7.71-24.35 6.36-18.48 15.22 5.96 9.01 11.55 11.18 21.38 13.8 5.43 1.45 31.74-3.69 27.74-13.34-2-3.22-2.78-6.71-2.34-10.47-9.25 4.45-18.49 8.89-27.74 13.34l-.87 3.66c-8.75 9.3 14.33 8.91 17.92 7.76 9.57-4.03 19.49-4.78 29.74-2.25.06-4.39.12-8.78.19-13.16-2.17.8-4.35 1.59-6.52 2.39-15.47 3.42-20.86 18.76-.45 16.52l74.56-8.19.45-16.52a353.39 353.39 0 0 1-40.13 8.26l-.45 16.52c16.93-3.52 33.68-5.08 50.96-5.3l13.67-18.08c-8.77.41-17.55.83-26.32 1.24-11.8.57-36.51 19.17-13.67 18.1zM1634.84 247.17c-15.73 30.3-24.04 59.13-26.69 93.17-.67 8.59 8.9 11.24 15.73 10.9l211.79-10.53c7.12-.35 21.83-7.11 18.7-16.86-9.39-29.24-9.22-51.93-2.72-81.57.75-3.42-1.71-6.42-4.09-8.37-19.6-16.02-61.54-5.33-83.57-4.34-49.78 2.22-99.48 5.47-149.15 9.45-19.04 1.52-26.56 26.42-3.17 24.55 55.51-4.44 111.07-7.95 166.71-10.19 29.69-1.2 28.87-.4 30.95 24.9 1.58 19.16 4.87 36.28 10.81 54.75 6.23-5.62 12.47-11.24 18.7-16.86l-211.79 10.53 15.73 10.9c2.42-31.24 10.31-59.05 24.7-86.77 8.8-16.94-25.81-16.82-32.64-3.66zM1680.41 474.38c9.84-2.95 19.69-5.91 29.53-8.86 4.66-1.4 16.63-5.44 15.04-12.32-1.53-6.6-15.3-4.32-19.19-3.15-9.84 2.95-19.69 5.91-29.53 8.86-4.66 1.4-16.63 5.44-15.04 12.32 1.53 6.6 15.3 4.31 19.19 3.15zM1580.28 460.55c20.68-6.85 41.37-13.7 62.05-20.55 4.83-1.6 16.79-5.79 14.86-13.01-1.82-6.81-14.87-5.33-19.37-3.84-20.68 6.85-41.37 13.7-62.05 20.55-4.83 1.6-16.79 5.79-14.86 13.01 1.82 6.81 14.87 5.33 19.37 3.84zM1665.86 501.74c13.78-3.94 27.56-7.87 41.34-11.81 5.1-1.46 16.53-5.9 14.83-13.11-1.66-7.02-14.96-5.2-19.4-3.94-13.78 3.94-27.56 7.87-41.34 11.81-5.1 1.46-16.53 5.9-14.83 13.11 1.66 7.02 14.96 5.21 19.4 3.94z"/><path class="st1" d="M1726.89 511.17c7.24 0 17.98-5.55 18.95-13.48 1.08-8.84-9.3-10.61-15.65-10.61-7.24 0-17.98 5.55-18.95 13.48-1.08 8.84 9.29 10.61 15.65 10.61z"/><path class="st0" d="M1823.45 466.37c6.89-.99 13.78-1.97 20.67-2.96 6.06-.87 18.01-4.01 19.55-11.23 1.57-7.34-10.49-7.23-14.59-6.64-6.89.99-13.78 1.97-20.67 2.96-6.06.87-18.01 4.01-19.55 11.23-1.57 7.34 10.49 7.22 14.59 6.64zM1873.23 476.37l47.25-14.76c3.07-.96 13.97-5.1 10.23-9.64-3.58-4.35-18.34.83-22.03 1.99l-47.25 14.76c-3.07.96-13.97 5.1-10.23 9.64 3.57 4.35 18.34-.83 22.03-1.99zM1900.99 496.22c1.79-1.13 3.85-2.45 5.55-3.05-1.17.41-3.22.66.45.34 7.06-.63 17.77-2.67 22.97-7.93 5.18-5.24-4.74-4.94-7.83-4.66-16.38 1.46-33.13 6.44-47.09 15.26-.96.61-4.66 2.68-4.14 4.6.51 1.91 4.76 1.9 5.89 1.92 7.74.11 17.6-2.3 24.2-6.48zM1884.6 526.24c3.96-.88 7.92-1.77 11.88-2.65 5.46-1.22 16.56-6.65 14.62-13.9-2.02-7.55-14.4-5.89-19.61-4.73-3.96.88-7.92 1.77-11.88 2.65-5.46 1.22-16.56 6.65-14.62 13.9 2.03 7.55 14.41 5.9 19.61 4.73z"/><path class="st1" d="M1927.2 518.3c8.25 0 17.29-1.71 24.2-6.48 1.6-1.1 4.53-3.14 3.91-5.47-.59-2.22-4.4-2.78-6.12-2.78-8.25 0-17.29 1.71-24.2 6.48-1.6 1.1-4.53 3.14-3.91 5.47.59 2.22 4.4 2.78 6.12 2.78z"/><path class="st0" d="M1023.54 243.92c-2.35 5.84-2.09 11.56.79 17.16 2.08 7.5 31.21-3.02 33.94-7.79 5.77-10.05 7.16-16.16 5.75-28.1-.9-7.62-31.09 3.9-33.94 7.79-4.97 4.76-7.77 10.58-8.39 17.44-2.26 8.39 29.19-2.55 32.23-4.84 28.82-21.71-12.97-29.89-30.87-23.17-27.44 10.3-25.58 41.37 5.87 41.1 25.48-.22 57.01-26.03 26.99-47.78-20.24-14.66-57.14-3.83-73.54 12.12-28.46 27.68-10.96 61.84 26.71 53.37 24.87-5.59 62.44-42.16 24.35-60.11-18.62-8.77-53.99 4.16-60.01 24.35-11.52 38.67 40.49 36.35 60.96 25.21 26.28-14.3 19.15-47.46-11.26-47.36-23.77.08-64.37 20.65-43.08 49.09 14.68 19.6 55.45 12.44 71.31-2.87 31.01-29.93-28.54-51.88-53.09-48.95-25 2.99-68.81 25.82-44.51 55.86 15.35 18.98 48.62 13.28 66.46.46 31.16-22.39 10.97-59.67-23-59.68-14.35-.01-66.69 13.26-46.67 36.78 16.81 19.75 74.4-4.5 70.5-30.08-4.46-29.32-52.97-18.15-67.09-3.53-29.4 30.43 7.65 51.45 36.58 38.83 31.47-13.72 41.12-62.02-2.57-58.21-3.45.3-28.8 10.11-23.75 11.93 8.75 3.15 15.28 2.09 24.49.22 29.3-5.93 58.52-15.99 87.33-23.91 8.1-2.23 25.13-12.17 6.34-10.88-10.24.71-20.49 1.41-30.73 2.12-3.08.21-29.51 8.28-23.75 11.93 9.32 5.91 16.94 8.73 27.59 10.8 7.21 1.4 37.13-10.46 28.31-12.56-21.81-5.18-73.75-11.25-90.78 11.32-9.87 13.09-1.53 19.59 11.08 22.9 24.03 6.31 72.28-15.41 72.13 23.45 11.41-3.06 22.82-6.11 34.23-9.17-3.32-15.63-9.65-24.99-21.83-34.49-5.73-4.47-30.15 2.31-33 8.84-5.83 13.35-5.77 22.91 1.98 35.75 3.78 6.26 35.47-2.1 34.23-9.17-1.75-9.96-4.09-16.68-8.9-25.58-3.49-6.45-34.79 1.86-34.23 9.17 1.2 15.56 2.41 31.13 3.61 46.69 11.41-3.06 22.82-6.11 34.23-9.17-6.71-13.7-13.41-27.39-20.12-41.09-3.31-6.75-33.92 1.85-34.23 9.17-.77 18.52 1.32 34.18 6.94 51.84 10.42-3.62 20.85-7.24 31.27-10.87-30.21-3.81-60.12-5.02-90.55-3.44-3.71.19-32.54 10.37-27.4 12.14 26.71 9.2 52.57 13.1 80.81 11.89 4.85-.21 35.1-11.28 25.39-12.77-16.71-2.57-30.78.02-46.67 5.39-1.99.67-17.45 7.43-8.42 9.49 31.04 7.08 60.62.32 88.2-14.77 11.6-6.35-5.2-6.36-9.61-5.66-10.1 1.61-17.49 4.91-26.67 8.55-23.49 9.3-43.47 3.77-68.18-3.37-5.45-1.58-35.46 8.3-30.33 11.92 24.44 17.27 50.22 19.62 78.85 13.08 1.33-.3 25.56-8.55 19.54-11.3-13.93-6.36-25.45-7.54-40.57-8.27-24.63-1.19-35.46-21.12-51.33-38.98-10.78 3.76-21.57 7.52-32.35 11.29 12.08 10.85 38.32 2.78 49.33-7.19 6.16-5.58 6.47-12.57 11-18.77 4.84-6.63 14.33-10.7 18.62-16.83 4.9-6.99 8.96-10.94.83-17.72-6.51 3.77-13.02 7.53-19.54 11.3 13.04-2.37 22.48-5.67 34.26-11.76 3.19-1.65 6.31-5.13 1.18-6.29-39.6-8.96-85.15 6.17-106.85 41.37-3.34 5.42 28.59-2.06 32.23-4.84 2.87-2.19 5.74-4.39 8.61-6.58-10.74 1.61-21.49 3.23-32.23 4.84-5.31 19.01-11.52 42.05 4 57.91 13.28 13.58 43.49 16.22 60.6 18.08 45.44 4.93 90.43-2.8 133.17-18.25 8.77-3.17 16.91-10.89 1.84-9.5-38.62 3.57-75.58 12.02-111.94 25.53-4.46 1.66-18.56 9.6-5.49 9.71 41.3.33 98.83-7.95 109.05-56.06-11.31 2.6-22.63 5.19-33.94 7.79 15.24 25.15-21.5 27.73-36.63 32.53-12.07 3.83-22.81 9.28-33.62 15.81-2.39 1.44-6.93 5.74-1.18 6.29 18.64 1.78 34.24-.73 51.74-7.31.79-.3 13.51-5.37 11.38-7.8-6.54-7.46-11.89-12.02-20.92-16.65-8.52-4.37-35.19 9.83-32.35 11.29 7.62 3.03 13.97 7.88 19.05 14.53 3.79-2.6 7.58-5.2 11.38-7.8 18.7-7.03 88.87-11.31 65.39-50.06-3.67-6.05-32.56 1.3-33.94 7.79-5.38 25.34-15.36 36.97-52.93 36.67-1.83 3.24-3.66 6.47-5.49 9.71 27.9-10.36 55.73-16.65 85.32-19.38.61-3.17 1.22-6.33 1.84-9.5-38.15 13.79-78.97 16.91-118.68 8.08-39.16-8.71-43.66-31-33.95-65.79 2.32-8.3-29.19 2.51-32.23 4.84-2.87 2.19-5.74 4.39-8.61 6.58 10.74-1.61 21.49-3.23 32.23-4.84 8.21-16.61 23.03-26.02 44.47-28.22-2.15.39-25.04 6.7-19.54 11.3 9.38 7.83-11.07 15-13.4 18.47-4.48 4.3-7.53 9.45-9.16 15.45-6.98 10.51-4.48 11.86 7.48 4.03-5.75-5.17-36.79 6.29-32.35 11.29 10.7 12.04 25.16 36.82 40.48 42.55 17.69 6.61 28.77-5.64 51.42 4.71 6.51-3.77 13.02-7.53 19.54-11.3-23.33 5.33-36.97-1.57-53.23-13.06-10.11 3.97-20.22 7.95-30.33 11.92 25.79 7.45 54.85 15.14 81.96 10.81 6.02-.96 11.59-2.43 17.28-4.63 3.61-1.4 25.96-14.01 17.2-12.62-3.2-1.89-6.41-3.77-9.61-5.66-11.39 5.51-22.71 6.25-33.94 2.23-2.81 3.16-5.61 6.33-8.42 9.49 2.29.25 4.59.49 6.89.74 8.46-4.26 16.92-8.51 25.39-12.77-25.1 1.07-47.17-2.01-70.92-10.19-9.14 4.05-18.27 8.09-27.4 12.14 28.51-1.48 56.32-.57 84.7 3.01 4.26.54 33.66-3.34 31.27-10.87-5.62-17.67-7.72-33.32-6.94-51.84-11.41 3.06-22.82 6.11-34.23 9.17 6.71 13.7 13.41 27.39 20.12 41.09 3.21 6.54 34.79-1.91 34.23-9.17-1.2-15.56-2.41-31.13-3.61-46.69-11.41 3.06-22.82 6.11-34.23 9.17 4.81 8.89 7.15 15.61 8.9 25.58 11.41-3.06 22.82-6.11 34.23-9.17-7.2-11.93-8.8-18.65-2.55-32.98-11 2.95-22 5.9-33 8.84 13.27 10.36 16.76 17.28 19.96 32.37 1.32 6.21 34.2-1.51 34.23-9.17.06-15.94-9.08-24.05-24.24-27.71-7.11-1.72-13.6-.26-20.82-1.07-4.25.2-8.47.68-12.66 1.42-12.53-11.65-11.61-14.52 2.75-8.58 9.44-4.19 18.87-8.37 28.31-12.56-8.84-.98-16.69-4.15-23.55-9.52-7.92 3.98-15.83 7.95-23.75 11.93 10.24-.71 20.49-1.41 30.73-2.12 2.11-3.63 4.23-7.25 6.34-10.88-14.17 3.9-28.34 7.79-42.51 11.69-7.99 2.2-28.12 12.19-34.49 9.9-7.92 3.98-15.83 7.95-23.75 11.93 18.51-1.62 13.34 37.04 2.56 40.3l17.41-1.05c-11.74-3.7-13.07-8.84-14.03-19.16-2.88-31.04 8.23-3.43 11.17.95 2.62 3.9 24.06 26.75 9.06 34.68-16.67 8.82-19.53-22.88-15.7-27.97 8.52-11.34 29.19-1.64 35.32 6.83 11.67 16.12-1.71 33.25-8.96 6.07l1.08-15.61c3.44 3.63 5.42 7.82 5.92 12.56 2.26 5.33-.4 6.44-8.01 3.34-4.83-11.14-1.46-21.03 10.11-29.68-7.66 2.64-15.32 5.28-22.97 7.92 12.46-1.56 28.41 29.79 15.43 33.51-14.93 4.29-5.74-29.9-6.12-29.22 9.59-17.1 17.06-8.88 27.96 2.79 3.1 2.81 6.19 5.63 9.29 8.44-3.56-15.86-9.98-15.67-19.26.56 10.74-1.61 21.49-3.23 32.23-4.84.62-6.86 3.42-12.67 8.39-17.44-11.31 2.6-22.63 5.19-33.94 7.79 2.56 9 .83 17.44-5.18 25.33 11.31-2.6 22.63-5.19 33.94-7.79-2.88-5.6-3.14-11.32-.79-17.16.4-2.42-32.47-.78-34.26 9.15z"/><path class="st1" d="M100.33 393.76c8.13 0 17.25-2.19 24.2-6.48 1.42-.87 4.65-2.71 4.09-4.8-.55-2.05-4.56-2.11-5.94-2.11-8.13 0-17.25 2.19-24.2 6.48-1.42.87-4.65 2.71-4.09 4.8.56 2.05 4.56 2.11 5.94 2.11zM103.96 381.42c7.26 0 17.98-5.57 18.94-13.51 1.07-8.85-9.29-10.65-15.67-10.65-7.26 0-17.98 5.57-18.94 13.51-1.06 8.85 9.29 10.65 15.67 10.65zM92.81 348.68c7.45 0 18.03-2.64 22.69-8.99 4.72-6.46-4.08-8.73-8.92-8.73-7.45 0-18.03 2.64-22.69 8.99-4.72 6.45 4.08 8.73 8.92 8.73z"/><path class="st0" d="M82.11 331.54c-19.65 41.17-32.53 81.41-40.43 126.34 11-2.95 22-5.9 33-8.84-16.15-30.32-17.22-57.57-7.25-89.34-11.47 2.01-22.94 4.01-34.42 6.02l20.46 77.36c3.69 13.95 34.35 7.28 34.42-6.02.34-70.98-3.03-138.9 11.95-208.89-11.54.96-23.07 1.91-34.61 2.87.46 28.21-.87 55.68-4.06 83.71-1.97 17.36 31.67 11.22 34.61-2.87 4.85-23.24 4.32-16.61 1.09-40.13-2.21-16.07-31.59-4.91-34.42 6.02-30.38 117.51-3.07 239.13-25.34 357.7 11.47-2.01 22.94-4.01 34.42-6.02-6.24-79.67-1.45-157.76 13.74-236.16-11.47 2.01-22.94 4.01-34.42 6.02 19.7 119.71-22.91 235.99-27.16 355.21-.61 17.26 33.91 11.94 34.61-2.87l5.55-117.97c.81-17.23-33.91-11.96-34.61 2.87l-5.55 117.97c11.54-.96 23.07-1.91 34.61-2.87 4.33-121.53 46.87-239.45 26.78-361.51-2.55-15.48-32.15-5.7-34.42 6.02-15.61 80.56-19.77 160.67-13.36 242.45 1.2 15.31 32.22 5.67 34.42-6.02C94 514.01 66.68 392.42 97.06 274.89c-11.47 2.01-22.94 4.01-34.42 6.02-.49 11.28-.98 22.55-1.46 33.83 11.54-.96 23.07-1.91 34.61-2.87 3.18-28.03 4.51-55.5 4.06-83.71-.29-17.87-31.6-11.16-34.61 2.87-15.05 70.3-11.6 137.62-11.95 208.89 11.47-2.01 22.94-4.01 34.42-6.02l-20.46-77.36c-4.26-16.12-30.96-5-34.42 6.02-11.62 37-7.54 67.5 10.45 101.29 6.34 11.9 31.09 2.07 33-8.84 7.42-42.19 19.99-81.44 38.42-120.04 8.2-17.17-26.31-16.58-32.59-3.43z"/><path class="st0" d="M61.33 528.04C41.21 686.37 5.96 850.97 29.12 1010.53c1.09 7.51 33.15-1.02 34.23-9.17 3.84-29.15 7.67-58.3 11.51-87.45.54-4.13-32.85-1.26-34.23 9.17-3.84 29.15-7.67 58.3-11.51 87.45 11.41-3.06 22.82-6.11 34.23-9.17C40.19 841.8 75.44 677.19 95.56 518.87c.53-4.18-32.9-1.25-34.23 9.17z"/><path class="st0" d="M46.34 896.9c-5.95 48.69-11.9 97.37-17.84 146.06 11.43-1.36 22.85-2.72 34.28-4.09 1.85-35.4 6.1-70.03 12.87-104.84-11.43 1.36-22.85 2.72-34.28 4.09-2.59 72.99-.03 145.49 7.84 218.12 1.41 13.01 31.73 2.3 34.25-6.63 8.02-28.42 8.82-52.95 2.98-81.85-2.47-12.22-36.83-3.73-34.23 9.17 5.45 26.97 4.36 50.58-3.03 76.77 11.42-2.21 22.84-4.42 34.25-6.63-7.69-70.91-10.32-141.74-7.79-213.04.52-14.71-32.04-7.44-34.28 4.09a751.085 751.085 0 0 0-12.87 104.84c-.75 14.46 32.83 7.76 34.28-4.09 5.95-48.69 11.9-97.37 17.84-146.06 1.72-14.02-32.79-7.99-34.27 4.09z"/><path class="st0" d="M50.67 991.51c-.12 51.17-3.26 102.07-9.42 152.87-1.75 14.46 30.93 6.17 34.24-4.23 6.17-19.36 12.34-38.71 18.51-58.07 3.81-11.96-30.52-7.46-34.24 4.23-6.17 19.36-12.34 38.71-18.51 58.07l34.24-4.23c6.16-50.8 9.3-101.69 9.42-152.87.04-14.31-34.21-7.17-34.24 4.23z"/><path class="st0" d="M66.58 1115.72c-5.45 54.61-8.66 113.71 29.17 158.05 7.96 9.33 29.6 1.39 33-8.84 1.94-5.84 3.88-11.67 5.83-17.51 4.3-12.91-30.23-8.63-34.36 3.79-1.94 5.84-3.88 11.67-5.83 17.51 11-2.95 22-5.9 33-8.84-35.37-41.45-31.55-97.03-26.47-147.95 1.51-14.9-33.07-8.93-34.34 3.79z"/><path class="st0" d="M41.54 1073.4c3.97 72.3 7.69 252.31 120.52 229.55 21.7-4.38 14.71-29.32-6.7-25.01-70.65 14.25-76.89-167.81-79.03-206.74-1.03-18.69-35.69-14.09-34.79 2.2z"/><path class="st0" d="M23.95 974.32c-4.29 55.74 1.43 109.46 15.32 163.6 12.17 47.43 26.61 126.93 59.64 164.89 49 56.32 166.12 32.67 225.94 12.04 22.8-7.86 1.69-15.92-12.69-10.96-51.45 17.74-128.45 28.35-172.64-10.81-26.92-23.86-35.86-67.23-47.08-100.97-24.19-72.8-40.45-145.78-34.5-222.93.89-11.45-33.25-4.5-33.99 5.14z"/><path class="st0" d="M79.96 1269.34c64.75 41 134.47 55.51 210.25 47.61 1.65-5.98 3.3-11.96 4.94-17.94-38.45 5.99-70.53 3.21-107.43-9.31-6.82 5.76-13.64 11.52-20.47 17.27 48.72-1.81 97.43-3.61 146.15-5.42 3.08-6.08 6.17-12.15 9.25-18.23-12.89 1.01-25.78 2.03-38.66 3.04l-4.62 17.3c52.5-12.25 105.06-21.46 158.54-28.03 1.65-5.98 3.3-11.96 4.94-17.94-28.87 5.43-57.74 10.85-86.6 16.28-10.26 1.93-31.6 16.7-9.25 18.23 75.54 5.15 148.77-1.7 222.24-19.87 20.53-5.08 16.29-21.18-4.31-16.08-67.7 16.75-134.86 22.18-204.38 17.44-3.08 6.08-6.17 12.15-9.25 18.23 28.87-5.43 57.74-10.85 86.6-16.28 15.39-2.89 29.22-20.93 4.94-17.94-56.53 6.94-112.34 16.96-167.8 29.9-10.69 2.49-23.36 17.22-4.62 17.3 23.02.09 24.54.02 47.27-3.61 10.27-1.64 31.36-19.05 9.25-18.23-48.72 1.81-97.43 3.61-146.15 5.42-4.27.16-35.69 12.11-20.47 17.27 43.37 14.72 84.63 18.27 129.87 11.22 15.79-2.46 29.06-20.46 4.94-17.94-68.4 7.14-130.25-9.25-187.81-45.7-8.88-5.65-40.6 7.63-27.36 16.01z"/><path class="st0" d="M143.66 1092.7c.86-1.23 1.72-2.47 2.58-3.7 1.85-2.66 1.37-4.73-.1-7.27-4.01-6.93-6.16-7.27-13.88-8.89-9.39-1.97-20.22 1.8-26.4 8.99-13.65 15.88-10.07 40.45-11.32 60.28-2.16 34.3-4.32 68.6-6.49 102.9l34.25-6.66L98 1165.3c-3.72-11.19-34.07-4.12-34.25 6.66-.66 41.08 1.07 81.64 5.43 122.52 1.36 12.72 31.87 2.36 34.25-6.66 7.79-29.54 9.7-56.2 6.91-86.24-11.41 3.06-22.82 6.11-34.23 9.17 8.04 24.62 16.09 49.24 24.13 73.86 3.6 11 25.39 3.86 30.89-1.58 23-22.76 32.07-45.26 29.69-77.85-11.41 3.06-22.82 6.11-34.23 9.17 8.82 21.16-5.65 58.37 22.21 67.9 16.66 5.7 31.7-6.45 40.57-18.17 1.12-1.54 1.5-3.23 1.14-5.09-1.22-2.38-2.45-4.75-3.67-7.13-5.72-11.09-38.33-3.01-34.23 9.17 7.12 21.12 3.06 14.74 18.78 30.54 6.57 6.6 32.72 2.39 33-8.84.58-22.99 1.15-45.98 1.73-68.98.36-14.35-25.23-6.05-30.91-.93-41.08 37.01-8.15 90.6 38.38 101.27 36.53 8.38 75.6-3.57 111.64-8.38 70.5-9.41 140.28-6.78 210.25 5.27 5.67-6.48 11.35-12.96 17.02-19.44-90.67 3.18-181.35 6.36-272.02 9.53-2.95 6.56-5.91 13.12-8.86 19.69 152.14-17.97 304.79-28.55 457.96-31.55 4.4-6.63 8.79-13.26 13.19-19.89-103.56 3.58-207.11 7.16-310.67 10.75-12.95.45-36.2 20.58-13.19 19.89 504.6-15.06 1013.51 55.65 1513.8-37.71 16.19-3.02 28.27-23.53 4.53-19.48-428.63 73.09-862.38-26.93-1292.76 19.13-11.92 1.28-30.57 17.52-8.86 19.69a6187.297 6187.297 0 0 0 702.73 29.82c12.53-.18 36.9-18.32 13.19-19.89-115.24-7.61-230.48-15.22-345.72-22.84-4.4 6.63-8.79 13.26-13.19 19.89 106.85-1.78 213.7-3.55 320.55-5.33 4.4-6.63 8.79-13.26 13.19-19.89-80.34 2.46-160.68 4.93-241.02 7.39-8.05.25-37.09 16.73-17.02 19.44l163.05 22.02c10.2 1.38 41.1-14.58 20.85-18.98-258.54-56.18-523.23-68.77-785.95-37.65-11.93 1.41-30.55 17.2-8.86 19.69 175.95 20.12 352.51 23.7 529.15 11.32 12.27-.86 30.08-20.6 8.86-19.69-243.24 10.45-486.47 20.89-729.71 31.34-12.97.56-36.1 20.87-13.19 19.89 243.24-10.45 486.47-20.89 729.71-31.34 2.95-6.56 5.91-13.12 8.86-19.69-173.75 12.17-347.46 8.06-520.5-11.73-2.95 6.56-5.91 13.12-8.86 19.69 257.4-30.49 516.35-17.89 769.63 37.15 6.95-6.33 13.9-12.66 20.85-18.98l-163.05-22.02c-5.67 6.48-11.35 12.96-17.02 19.44 80.34-2.46 160.68-4.93 241.02-7.39 12.87-.39 36.34-20.28 13.19-19.89-106.85 1.78-213.7 3.55-320.55 5.33-12.5.21-36.92 18.32-13.19 19.89 115.24 7.61 230.48 15.22 345.72 22.84 4.4-6.63 8.79-13.26 13.19-19.89a6187.297 6187.297 0 0 1-702.73-29.82c-2.95 6.56-5.91 13.12-8.86 19.69 430.4-46.06 863.9 54 1292.76-19.13l4.53-19.48c-497.41 92.83-1003.44 22.33-1505.15 37.3-4.4 6.63-8.79 13.26-13.19 19.89 103.56-3.58 207.11-7.16 310.67-10.75 12.83-.44 36.35-20.34 13.19-19.89-156.04 3.06-311.61 13.65-466.61 31.96-11.56 1.37-30.59 20.45-8.86 19.69 90.67-3.18 181.35-6.36 272.02-9.53 7.84-.27 37.32-15.94 17.02-19.44-53.32-9.18-106.87-13.92-161.02-11.52-29.34 1.3-58.22 4.77-87.24 9.08-29.98 4.45-42.69 5.9-74.06-4.14-22.58-7.22-71.63-30.21-31.25-66.59l-30.91-.93c-.58 22.99-1.15 45.98-1.73 68.98 11-2.95 22-5.9 33-8.84-5.43-8.72-10.87-17.44-16.3-26.17-11.41 3.06-22.82 6.11-34.23 9.17 11.37-10.74 16.16-23.59 14.39-38.56.27-6.24-1.79-12.01-6.18-17.3-5.04-12.1-35.16-3.55-34.23 9.17 3.83 24.52-3.84 45.41-23.01 62.67 10.3-.53 20.59-1.05 30.89-1.58-8.04-24.62-16.09-49.24-24.13-73.86-4.04-12.37-35.39-3.4-34.23 9.17 2.92 31.46.74 52.04-6.95 81.22l34.25-6.66c-4.19-39.27-6.03-77.98-5.4-117.5l-34.25 6.66 24.3 73.05c3.77 11.33 33.57 4.07 34.25-6.66l5.19-82.32c1.3-20.55-4.04-59.02 10.3-75.71-8.8 3-17.6 5.99-26.4 8.99.1-.04.21-.08.31-.12-9.01 12.96 25.37 10.46 31.98.98zM815.3 15.05c-2.74-.56-5.48-1.11-8.22-1.67-6.63-1.35-16.03 2.03-20.24 7.43-23.67 30.39-9.67 76.32-7.32 112.25 6.27-4.66 12.54-9.33 18.81-13.99-229.57-4.32-457.45 20.39-680.86 73.25 3.61 7.42 7.23 14.84 10.84 22.26 54.83-21.63 109.95-32.16 168.75-33.55 15.31-.36 28.39-24.79 7.33-25.38-98.03-2.78-185.38 47.3-227.23 137.18-8.29 17.8 26.24 18.21 32.79 4.15 33.61-72.19 102-118.34 182.7-116.05 2.44-8.46 4.89-16.92 7.33-25.38-65.33 1.54-126.21 14.47-186.94 38.42-19.17 7.56-6.03 26.25 10.84 22.26 220.38-52.14 445.15-75.93 671.54-71.66 6.41.12 19.33-6.03 18.81-13.99-.63-9.71 1.42-87.79-10.67-90.25 17.1 3.47 34.45-20.66 11.74-25.28z"/><path class="st0" d="M164.86 1277.66c-.92-1.59-1.84-3.19-2.76-4.78-3.17-5.5-14.23-2.67-18.76-1.55-13.07 3.24-20.58 4.9-25.7 17.64-.52 1.3-.23 2.39.87 3.26 14.59 12.56 25.23 10.75 44.37 10.97 43.08.48 86.49-2.37 129.56-3.55l247.35-6.78c168.82-4.62 337.65-9.25 506.47-13.87 164.9-4.52 329.8-9.03 494.69-13.55 153.67-4.21 308.91-3.03 457.99-45.29 19.84-5.62 16.95-18-3.29-12.26-150.34 42.61-308.92 38.74-463.83 42.98-153.12 4.19-306.24 8.39-459.36 12.58-149.19 4.09-298.39 8.17-447.58 12.26-74.6 2.04-149.19 4.09-223.79 6.13-39.26 1.08-78.52 2.15-117.78 3.23l-47.11 1.29c-20.89.57-73.92-6.65-89.59-2.77-6.25-.52-12.5-1.03-18.76-1.55.92 1.59 1.84 3.19 2.76 4.78 5.34 9.21 37.72-3.16 34.25-9.17z"/><path class="st0" d="M1943.78 138.46c15.76 191.57 23.32 383.72 21.5 575.94-.91 95.94-2.68 192.29-9.64 288-6.14 84.49-20.43 167.62-73.67 236.21-4.92 6.34 4.28 8.4 8.84 8.45 197 2.21 167.23-319.31 130.06-437.33-3.3-10.47-37.4-.89-34.23 9.17 22.48 71.39 32.82 145.42 25.85 220.26-5.45 58.47-24.48 191.47-107.82 190.54 2.95 2.82 5.9 5.63 8.84 8.45 101.55-130.82 82.79-330.38 85.39-486.79 3.45-207.6-3.87-415.15-20.89-622.06-.78-9.41-35.19-2.57-34.23 9.16zM987.61 456.4c-76.09 22.42-110.49 91.75-131.15 163.47-32.07 111.32-45.58 232.42-21.13 346.66 39.75 185.7 205.56 346.48 404.75 317.61 13.65-1.98 29.75-23.98 7.28-25.58-97.69-6.96-196.28-16.06-276.66-77.66-8.76 6.7-17.53 13.4-26.29 20.1 308.4 162.22 689.2 45.43 849.94-264.45 8.26-15.93-19.98-17.15-27.84-10.23-125.31 110.37-209.58 312.6-394.05 331.88l1.8 24.92c145.76-33.74 285.59-115.31 361.34-248.18 74.45-130.58 74.09-308.32-25.78-425.9-58.98-69.43-144.1-118.86-223.77-160.87-73.68-38.85-153.33-69.83-236.81-78.05-137.19-13.51-281.93 40.12-350.86 164.48-7.62 13.74 16.03 17.37 24.08 12.54 165.53-99.28 336.15-187.7 534.41-134.82 144.96 38.66 290.07 155.39 285.63 317.5 11-2.95 22-5.9 33-8.84-69.28-81.66-130.27-168.65-183.42-261.61-9.6 5.89-19.19 11.79-28.79 17.68 70.22 47.1 124.4 107.96 163.53 182.74 10.43-5.09 20.86-10.17 31.29-15.26-99.21-111.41-208.15-230.07-359.65-264.24-79.1-17.84-160.84-10.22-239.78 4.52-75.78 14.15-155.83 32.27-221.66 74.24-127.48 81.27-142.3 255.11-120.48 392.12C840 998.48 925.89 1133.09 1059.5 1203.2c171.21 89.84 354.45 30.46 519.88-42.38 21.39-9.42 2.47-28.67-15.33-20.83-177.43 78.12-371.23 131.81-539.79 4C881.36 1035.62 825.72 848.34 849.13 675c13.44-99.53 54.93-177.8 149.49-219.85 84.03-37.36 186.37-56.68 277.71-59.32 196.87-5.69 328.68 127.15 450.49 263.93 10.26 11.52 40.02 1.44 31.29-15.26-40.27-76.98-96.47-139.25-168.52-187.58-10.81-7.25-37.67 2.14-28.79 17.68 53.16 92.97 114.14 179.95 183.42 261.61 7.91 9.33 32.61 5.41 33-8.84 4.72-172.18-146.07-296.75-300.72-338.61-210.61-57.02-392.07 31.2-569.38 137.54 8.03 4.18 16.05 8.36 24.08 12.54 79.2-142.91 256.44-167.45 400.94-124.02 128.02 38.48 292.08 124.2 368.13 238.12 74.29 111.28 67.75 264 2.51 377.71-70.49 122.86-200.26 197.12-334.99 228.31-17.23 3.99-18.52 27.04 1.8 24.92 201.42-21.04 283.64-221.47 419.77-341.38l-27.84-10.23c-149.59 288.38-502.26 400.4-790.84 248.61-12.28-6.46-43.17 7.16-26.29 20.1 84.35 64.63 188.41 75.7 291.26 83.02 2.43-8.53 4.85-17.06 7.28-25.58-178.27 25.83-327.02-117.4-368.78-281.44-21.58-84.76-20-173.71-5.64-259.52 13.34-79.7 34.42-210.09 125.56-236.94 20.94-6.16 14.7-30.35-6.46-24.12z"/><path class="st0" d="M105.77 1160.4c124.98 16.5 250.52-10.66 375.06-20.26 143.48-11.06 287.44-13.37 431.27-15.74 11.4-.19 37.14-16.46 13.72-17.89-272.97-16.71-546.07-3.61-818.85 10.34-11.66.6-36.53 19.06-13.72 17.89 272.78-13.95 545.88-27.05 818.85-10.34l13.72-17.89c-133.15 2.19-266.39 4.36-399.29 13.37-131.7 8.93-267.79 40.55-399.48 23.17-9.85-1.3-39.96 14.88-21.28 17.35zM57.48 424.82a9581.673 9581.673 0 0 0 974.34-11.81c6.67-.42 36.31-15.49 17.81-16.49-56.2-3.02-108.98 3.15-162.8 19.84-9.2 2.85-24.43 15.55-5.16 15.29 6.68-.09 71.17 3.1 72.2 1.42l29.55-7.92-5.27-1.2-11.97 14.43c17.86-5.45 35.71-10.89 53.57-16.34 5.35-1.63 24.99-13.81 8.92-15.13-333.94-27.43-667.86 50.58-1001.09 5.9L9.77 429.3c139.83 3.3 279.65 6.59 419.48 9.89 11.18.26 36.9-16.11 14.05-16.65-139.83-3.3-279.65-6.59-419.48-9.89-7.34-.17-36.14 14.03-17.81 16.49 333.41 44.7 667.14-33.32 1001.09-5.9 2.97-5.04 5.94-10.08 8.92-15.13-17.86 5.45-35.71 10.89-53.57 16.34-2.44.74-24.25 11.63-11.97 14.43l5.27 1.2c8.22 1.88 24.53.3 29.55-7.92l3.84-6.27c1.37-2.24 2.13-3.63.29-5.83-15.53-18.54-71.94-5.38-93.71-5.08-1.72 5.1-3.44 10.19-5.16 15.29 45.61-14.14 89.72-20 137.51-17.43l17.81-16.49a9581.673 9581.673 0 0 1-974.34 11.81c-11.23-.42-36.91 15.78-14.06 16.66zM1518.34 410.98c7.05 44.82 136.19 24.1 167.97 23.17 90.77-2.66 180.79-12.79 270.13-28.82 8.07-1.45 32.15-15.3 10.57-13.3-121.96 11.32-243.93 22.64-365.89 33.95-5.7.53-35.42 14.19-18.49 13.95 140.82-2.01 281.15-11.06 421.03-27.45 8.66-1.01 37.46-15.63 14.8-13.85-118.86 9.3-239.22 13.8-357.21 31.23-13.83 2.04-30.49 16.31-6.34 12.74 115.02-16.99 232.87-21.05 348.74-30.12 4.93-4.62 9.87-9.24 14.8-13.85-137.42 16.1-275.31 25.29-413.66 27.27-6.16 4.65-12.33 9.3-18.49 13.95 121.96-11.32 243.93-22.64 365.89-33.95 3.52-4.43 7.05-8.86 10.57-13.3-64.52 11.58-129.41 20.16-194.83 24.54-21.95 1.47-209.59 21.46-215.38-15.31-1.08-6.95-35.59.4-34.21 9.15z"/></svg>