<?xml version="1.0" encoding="UTF-8"?>
<svg width="2048px" height="1696px" viewBox="0 0 2048 1696" version="1.1" xmlns="http://www.w3.org/2000/svg" xmlns:xlink="http://www.w3.org/1999/xlink">
    <title>emoji_ape</title>
    <g id="Page-1" stroke="none" stroke-width="1" fill="none" fill-rule="evenodd">
        <g id="emoji_ape" transform="translate(0.000000, -0.000000)" fill-rule="nonzero">
            <circle id="Oval" fill="#BE894A" cx="1664.21" cy="388.31" r="254.7"></circle>
            <path d="M1664.21,133.6 C1804.88,133.6 1918.91,247.63 1918.91,388.3 C1918.91,528.97 1804.88,643 1664.21,643 C1523.54,643 1409.51,528.97 1409.51,388.3 C1409.51,247.64 1523.54,133.6 1664.21,133.6 M1664.21,4.52 C1452.59,4.52 1280.42,176.69 1280.42,388.31 C1280.42,599.93 1452.59,772.1 1664.21,772.1 C1875.83,772.1 2048,599.93 2048,388.31 C2048,176.68 1875.83,4.52 1664.21,4.52 Z" id="Shape" fill="#000000"></path>
            <circle id="Oval" fill="#BE894A" cx="383.79" cy="388.31" r="254.7"></circle>
            <path d="M383.79,133.6 C524.46,133.6 638.49,247.63 638.49,388.3 C638.49,528.97 524.46,643 383.79,643 C243.12,643 129.09,528.97 129.09,388.3 C129.09,247.64 243.12,133.6 383.79,133.6 M383.79,4.52 C172.17,4.52 0,176.68 0,388.31 C0,599.93 172.17,772.1 383.79,772.1 C595.41,772.1 767.58,599.93 767.58,388.31 C767.58,176.68 595.41,4.52 383.79,4.52 Z" id="Shape" fill="#000000"></path>
            <circle id="Oval" fill="#492B07" cx="1059.06" cy="847.98" r="718.89"></circle>
            <path d="M1059.06,129.09 C1456.09,129.09 1777.95,450.95 1777.95,847.98 C1777.95,1245.01 1456.09,1566.87 1059.06,1566.87 C662.03,1566.87 340.17,1245.01 340.17,847.98 C340.17,450.95 662.03,129.09 1059.06,129.09 M1059.06,0 C591.48,0 211.08,380.4 211.08,847.98 C211.08,1315.56 591.48,1695.96 1059.06,1695.96 C1526.64,1695.96 1907.04,1315.56 1907.04,847.98 C1907.04,380.4 1526.64,0 1059.06,0 Z" id="Shape" fill="#000000"></path>
            <ellipse id="Oval" fill="#FECC73" cx="1059.06" cy="772.39" rx="522.76" ry="397.7"></ellipse>
            <ellipse id="Oval" fill="#FECC73" cx="1064.06" cy="1158.41" rx="701.72" ry="451.59"></ellipse>
            <path d="M1059.06,129.09 C1456.09,129.09 1777.95,450.95 1777.95,847.98 C1777.95,1245.01 1456.09,1566.87 1059.06,1566.87 C662.03,1566.87 340.17,1245.01 340.17,847.98 C340.17,450.95 662.03,129.09 1059.06,129.09 M1059.06,0 C591.48,0 211.08,380.4 211.08,847.98 C211.08,1315.56 591.48,1695.96 1059.06,1695.96 C1526.64,1695.96 1907.04,1315.56 1907.04,847.98 C1907.04,380.4 1526.64,0 1059.06,0 Z" id="Shape" fill="#000000"></path>
            <circle id="Oval" fill="#000000" cx="1289.11" cy="663.7" r="141.17"></circle>
            <circle id="Oval" fill="#FFFFFF" cx="1330.94" cy="629.72" r="38.34"></circle>
            <circle id="Oval" fill="#000000" cx="829.01" cy="663.7" r="141.17"></circle>
            <circle id="Oval" fill="#FFFFFF" cx="870.84" cy="629.72" r="38.34"></circle>
            <path d="M970.18,1109.91 C894.23,1109.91 832.44,1052.66 832.44,982.3 L909.89,982.3 C909.89,1009.96 936.93,1032.46 970.17,1032.46 C1003.41,1032.46 1030.45,1009.96 1030.45,982.3 L1107.9,982.3 C1107.92,1052.66 1046.13,1109.91 970.18,1109.91 L970.18,1109.91 Z" id="Path" fill="#000000"></path>
            <path d="M1176.08,1109.91 C1100.13,1109.91 1038.34,1052.66 1038.34,982.3 L1115.79,982.3 C1115.79,1009.96 1142.83,1032.46 1176.07,1032.46 C1209.31,1032.46 1236.35,1009.96 1236.35,982.3 L1313.8,982.3 C1313.81,1052.66 1252.02,1109.91 1176.08,1109.91 Z" id="Path" fill="#000000"></path>
            <path d="M1077.07,1434.07 C802.02,1434.07 578.24,1231.41 578.24,982.3 L655.69,982.3 C655.69,1188.7 844.72,1356.62 1077.06,1356.62 C1309.4,1356.62 1498.43,1188.7 1498.43,982.3 L1575.88,982.3 C1575.9,1231.41 1352.12,1434.07 1077.07,1434.07 Z" id="Path" fill="#000000"></path>
        </g>
    </g>
</svg>